<svg id="Group_67" data-name="Group 67" xmlns="http://www.w3.org/2000/svg" viewBox="166.144 4187.614 45.295 45.295">
  <defs>
    <style>
      .cls-1 {
        fill: #fff;
      }

      .cls-2 {
        fill-rule: evenodd;
      }
    </style>
  </defs>
  <g id="Group_55" data-name="Group 55" transform="translate(166.144 4187.614)">
    <ellipse id="Ellipse_11" data-name="Ellipse 11" class="cls-1" cx="22.648" cy="22.648" rx="22.648" ry="22.648"/>
  </g>
  <path id="Path_95" data-name="Path 95" class="cls-2" d="M63.263,23.275a4.541,4.541,0,0,1-4.246-3.145,4.474,4.474,0,0,0,2.045,0h0a4.539,4.539,0,0,1-2.988-2.045,4.615,4.615,0,0,1-.629-2.516,7.786,7.786,0,0,0,2.045.629A4.581,4.581,0,0,1,57.6,13.367a4.059,4.059,0,0,1,.472-3.3,13.329,13.329,0,0,0,9.594,4.876v-.472a4.918,4.918,0,0,1,.629-2.988,4.741,4.741,0,0,1,7.235-.786.218.218,0,0,0,.315,0,5.709,5.709,0,0,0,2.674-1.1h0a4.607,4.607,0,0,1-2.045,2.516,11.782,11.782,0,0,0,2.516-.629h0c-.157.157-.315.472-.472.629a8.243,8.243,0,0,1-1.73,1.573v.157a8.968,8.968,0,0,1-.157,2.045,12.364,12.364,0,0,1-1.258,4.089,11.522,11.522,0,0,1-2.516,3.617,11.42,11.42,0,0,1-6.291,3.46,13.765,13.765,0,0,1-2.516.315,13.437,13.437,0,0,1-7.392-2.045H56.5a8.977,8.977,0,0,0,4.561-.629C61.847,24.219,62.634,23.747,63.263,23.275Z" transform="translate(122.383 4192.963)"/>
</svg>
