<svg id="Group_69" data-name="Group 69" xmlns="http://www.w3.org/2000/svg" viewBox="242.265 4188.4 45.295 45.295">
  <defs>
    <style>
      .cls-1 {
        fill: #fff;
      }
    </style>
  </defs>
  <g id="Group_56" data-name="Group 56" transform="translate(242.265 4188.4)">
    <ellipse id="Ellipse_12" data-name="Ellipse 12" class="cls-1" cx="22.648" cy="22.648" rx="22.648" ry="22.648"/>
  </g>
  <path id="Path_96" data-name="Path 96" d="M125.44,13.328a5.278,5.278,0,0,0-1.73-3.617,5.217,5.217,0,0,0-3.932-1.573,75.016,75.016,0,0,0-10.38.157,5.174,5.174,0,0,0-4.561,4.089c-.472,1.73-.472,10.066-.157,11.8a5.536,5.536,0,0,0,4.246,4.561c1.73.472,9.908.315,11.638,0a5.339,5.339,0,0,0,4.561-4.246C125.755,22.921,125.6,15.058,125.44,13.328Zm-1.887,10.537a3.527,3.527,0,0,1-3.3,3.145c-1.73.157-9.279.315-10.852-.157a3.519,3.519,0,0,1-2.674-2.988,60.6,60.6,0,0,1,0-10.695,3.527,3.527,0,0,1,3.3-3.145c1.887-.157,8.65-.157,10.38,0a3.527,3.527,0,0,1,3.145,3.3A78.531,78.531,0,0,1,123.553,23.865ZM115.06,13.17a5.347,5.347,0,1,0,5.347,5.347A5.3,5.3,0,0,0,115.06,13.17Zm0,8.965a3.46,3.46,0,1,1,3.46-3.46A3.491,3.491,0,0,1,115.06,22.135Zm6.92-9.122a1.258,1.258,0,0,1-2.516,0,1.258,1.258,0,0,1,2.516,0Z" transform="translate(149.852 4192.215)"/>
</svg>
