<svg id="Group_68" data-name="Group 68" xmlns="http://www.w3.org/2000/svg" viewBox="90.023 4187.614 45.295 45.295">
  <defs>
    <style>
      .cls-1 {
        fill: #fff;
      }

      .cls-2 {
        fill-rule: evenodd;
      }
    </style>
  </defs>
  <g id="Group_54" data-name="Group 54" transform="translate(90.023 4187.614)">
    <ellipse id="Ellipse_10" data-name="Ellipse 10" class="cls-1" cx="22.648" cy="22.648" rx="22.648" ry="22.648"/>
  </g>
  <path id="Path_94" data-name="Path 94" class="cls-2" d="M20.123,10.789h2.516V6.857c-.472,0-.786-.157-1.258-.157H19.022a5.814,5.814,0,0,0-3.3.944,4.474,4.474,0,0,0-1.887,3.3,5.9,5.9,0,0,0-.157,1.73v2.988H9.9v4.4h3.775V31.078h4.561V20.068H22.01c.157-1.415.315-2.831.629-4.4H18.393V12.519C18.236,11.261,19.022,10.946,20.123,10.789Z" transform="translate(95.693 4191.451)"/>
</svg>
