<svg id="Layer_1" data-name="Layer 1" xmlns="http://www.w3.org/2000/svg" viewBox="0 0 1503.74 572.74"><defs><style>.cls-1{fill:#fff;}</style></defs><title>Artboard 2</title><path class="cls-1" d="M441.39,574.14c-1.92-6-3.58-12.12-5.81-18-5.52-14.55-11.47-28.94-16.92-43.51-5-13.35-9.49-26.89-14.35-40.29-3.33-9.17-6.9-18.26-10.36-27.38-5.19-13.7-10.42-27.38-15.57-41.1-4.41-11.76-8.6-23.6-13.09-35.33s-9.44-23.36-13.87-35.15c-3.6-9.57-6.64-19.35-10.11-29-1.8-5-4.13-9.8-6-14.79-1.73-4.72-3.1-9.56-5-15.48h8.95c10,0,20,.05,30,0,2.92,0,4.24.46,5.44,3.92,4.75,13.71,10.5,27.07,15.59,40.67,3.6,9.62,6.66,19.44,10.13,29.11,2.73,7.6,5.75,15.09,8.59,22.65q7.1,19,14.13,38,7.9,21.34,15.74,42.71c1.07,2.93,1.83,6,3,8.88.34.86,1.48,1.41,2.26,2.11.74-.84,1.81-1.56,2.18-2.54,4.21-11.18,8.32-22.39,12.44-33.6,2.63-7.15,5.16-14.34,7.87-21.47,5.44-14.32,11.13-28.54,16.4-42.92,5-13.72,9.46-27.66,14.55-41.36,5.35-14.39,11.12-28.63,16.89-42.86.55-1.36,2.46-3.05,3.76-3.08,12.66-.22,25.32-.13,38-.08a10,10,0,0,1,2.51,1c-2.33,6-4.62,11.88-6.86,17.76-5.13,13.44-10.3,26.87-15.35,40.34-4.46,11.9-8.6,23.92-13.2,35.77-4.71,12.12-10,24-14.67,36.16-5,12.93-9.41,26.08-14.39,39s-10.46,25.58-15.48,38.45c-7,17.88-13.78,35.83-20.54,53.79-4.72,12.53-9.25,25.12-13.86,37.69Z"/><path class="cls-1" d="M110.64,380.38c-.49,5.05-2.76,7.33-6.28,6.76-4.25-.68-6.09-3.63-5.4-7.1L83.57,369.65c-1.4,1-3.67,3.58-6.5,4.7a29.31,29.31,0,0,1-22.14-.11c-1.8-.71-3.84-.79-5.69-1.39-2.23-.73-5.49-1.18-6.25-2.74s.89-4.41,1.69-6.62c.31-.86,1.64-1.5,1.71-2.29.44-5.79.79-11.59.94-17.39.1-3.94-1.31-6.16-6-6.66-2.72-.29-5.16-3.29-7.72-5.08,1.87-2.67,3.18-6.21,5.72-7.83,4.81-3.07,5.31-4.3,1.22-8.37a30.38,30.38,0,0,1-4.17-5.34c-2-3.11-3.14-6.19-8-6.64s-4.13-5.37-3.84-9.15c.26-3.43,2-5.3,5.53-4.77,3.68.55,5.61-1.1,8.2-3.77,4.52-4.67,10.31-8.1,15.55-12.06.59-.45,1.11-1,2.94-2.66-7.07-2.26-13-4.5-19.1-5.87-1.62-.36-4,1.76-5.77,3.06-5.66,4.1-12,5.27-18.18,5.32-2,1.42-3.67,3.44-5.55,3.69-2.31.31-4.82-.87-7.24-1.4.7-2.66.61-6,2.24-7.85,4.35-4.87,4.66-6.44.73-11.86-4.65-6.4-6.14-19.34,2.59-27,4.66-4.09,5.16-8.17,2-13.53-1.42-2.39-3.15-4.6-4.6-7a25.6,25.6,0,0,1-2.75-20.88c2.28-7.92,9.14-11.54,16.49-14,4.48-1.48,9.07-2.6,14.15-4-1.14-3-1.72-5.62-3.1-7.73-1-1.49-3-2.36-4.65-3.31-1.26-.72-3-.81-4-1.77a4.59,4.59,0,0,1-1-3.81c.3-1,2-2.37,3-2.25,3.57.46,6.9-.81,7.94-3.62.77-2.06-1.2-5.13-1.91-7.76-.25-.94-.8-2.56-.47-2.79,4.21-2.9,4.25-8.35,7.36-11.79,2.5-2.77,5.54-3.34,8.58.13L56.17,115c-4.48-3.55-8.81-6.37-12.25-10-1.27-1.36-.45-4.68-.65-8.2l9.45,1.6c1.61-6,1.9-6.25,9.53-6.65C63,85.46,62.7,79,64.57,73.23c3.78-11.7,12.09-19.58,24.49-21.44,6.09-.91,11.68,2.07,16.54,6.25,3,2.54,5,7.3,11.14,5.63-2.22-17.09-.76-32.45,21.12-35.16C136.58,23,141,22,144,20.34c1.55-.87,5.82-.29,6,.32.76,3.24.61,6.69.77,10.06l-1.24.15c1.34,1.25,2.71,2.47,4,3.75,2.49,2.4,4.89,4.27,8.78,4.79,2.68.36,5.53,3.31,7.16,5.84.63,1-1.88,4-3,6.09L165,51.13l6,13.27c2.17-1,3.88-1.88,5.69-2.49,5.51-1.83,9.27-7.82,7.45-13.27-.72-2.15-3.1-4-5.13-5.38-3.11-2.14-3.29-4.49-1.87-7.65,1.54-3.43,4.42-4.54,7.3-3.16,3.68,1.76,4.08-.4,6.21-2.5,4.2-4.13,9.69-6.94,14.56-10.41,1.2-.86,2.86-2.09,3-3.28.41-4.08,2.54-6.37,6.31-7.06,4.83-.88,7,2.49,8.84,6.14a16.76,16.76,0,0,1,.68,2c1.15-.57,2-1,2.87-1.44,3.8-2.05,6.14-1.05,7.59,2.89.47,1.27,1.65,2.91,2.78,3.17,3.45.78,8.12-3.6,8.12-7.19,0-5.16,1.85-7.65,6.26-7.53,3.86.11,6.69,1.82,6,5,7.21,3.17,13.91,6,20.41,9.14,1.17.57,1.71,2.75,2.2,4.3a12.1,12.1,0,0,1,.07,3.48q0,261.49,0,523c0,2.12,0,4.24,0,6.41H162.84l-.76-1.79c2.13-1.26,4.12-3.16,6.42-3.64,5-1.05,10.4-.62,15.14-2.25a22.5,22.5,0,0,0,10-7.36c6.26-8.28,15.17-11.09,24.45-13.43,9.84-2.48,20-4,29.45-7.54,2.92-1.09,4.87-7.11,5.65-11.18,3.9-20.41,1.63-41.1,2-61.67.11-7.12-.9-14.27-.7-21.38.22-7.61-4.92-11.66-10.07-14.77-10.71-6.48-22-11.95-33.12-17.77a6.92,6.92,0,0,0-2.86-.54c-9.61-.39-19.3-.06-28.8-1.27-10.42-1.33-21.36-1.08-30.74-7.34-1.75-1.16-4.35-1.27-6.59-1.43-7.91-.56-15.86-.7-23.74-1.51C115.91,383.41,113.44,381.59,110.64,380.38Zm117.56-28.44c-.13,2.81-.38,5.83-.37,8.85,0,1.87-.28,4.33.75,5.49,3.05,3.45,2.68,6.84,0,9.7-3,3.27-6.77,5.85-11.26,9.62l36,14.51c0-12.27.05-24.07-.08-35.86a5.85,5.85,0,0,0-1.83-3.44C245,354.17,237.25,350.77,228.21,351.94ZM167.1,382.68c.85-5,1.6-8.59,2-12.24.12-1-.46-2.78-1.22-3.14-4.47-2.11-8.17-6.23-13.9-5.28-1.44.24-3.19-.62-4.63-1.31-3-1.47-5.9-3.32-9-4.73-3.39-1.56-6.92-2.8-11.68-4.69l2.15,12.13c-1.65.9-4.28,1.9-6.34,3.59-1.9,1.56-3.2,3.87-5,6.15a42.33,42.33,0,0,0,21.89,2.33c4.35-.62,9.19,1.34,13.67,2.64C159.32,379.35,163.37,381.24,167.1,382.68Zm34.15,165,.4,1.46c1.66-.27,3.34-.43,5-.81,8.72-2,17.37-4.52,26.17-6.08,7.18-1.28,10.34-3.38,12.73-11.16C230.32,536.11,213.11,535,201.25,547.71Zm3.17-161.28.94-1.16c-2.43-3.31-4.64-6.84-7.44-9.8-.8-.85-4.51-.63-4.85.09-1.36,2.8-1.9,6-2.84,9.35ZM218.95,368l-13.25-.88,8.39,13.21,1.78,0Z"/><path class="cls-1" d="M774.88,554h-44c-4.45-11.32-9-22.89-13.57-34.43-4.2-10.53-8.43-21-12.83-31.49a4.29,4.29,0,0,0-3.33-1.83q-51.23-.15-102.47,0a5.73,5.73,0,0,0-4.24,2.85c-7.14,16.54-14,33.2-21,49.8-.69,1.64-1.77,3.11-2.44,4.76-4.33,10.6-4.3,10.61-15.7,10.61-8.83,0-17.66,0-26.49,0-1.57,0-3.14-.21-5.11-.36L650.48,257.77l1.94,0ZM651.57,356.12l-1.69.12-37.8,89.59h75.6Z"/><path class="cls-1" d="M1132.64,274.36h140.68v40.09H1172.73v66.69h5.13c29.16,0,58.32.08,87.47-.09,4.1,0,5.49,1.06,5.37,5.28-.29,9.82-.33,19.67,0,29.48.16,4.71-1.09,6.26-6,6.22-28.66-.23-57.31-.11-86-.11h-6.07v91h100.63V554H1132.64Z"/><path class="cls-1" d="M1298.94,274.14c14.47,0,28.94,0,43.41.07a3.58,3.58,0,0,1,2.58,1.67c6.58,12.6,13,25.29,19.57,37.88,7.16,13.64,14.56,27.15,21.71,40.8,3.59,6.84,6.79,13.88,10.3,20.77a20.44,20.44,0,0,0,3.88,5.59c.53.5,3.27-.14,3.78-1,3.61-6.11,6.93-12.39,10.3-18.64,5.83-10.8,11.76-21.55,17.42-32.45,5.2-10,10-20.23,15.17-30.26,3.92-7.59,8.1-15,12.28-22.49a3.79,3.79,0,0,1,2.55-1.86c14.13-.12,28.26-.08,43-.08-.46,2.13-.47,3.85-1.18,5.19-6.76,12.69-13.67,25.29-20.48,38-2.87,5.34-5.58,10.77-8.41,16.13-6.45,12.22-13,24.4-19.37,36.63-6.28,12-12.41,24-18.69,36-4.33,8.26-8.88,16.39-13.11,24.7a14.1,14.1,0,0,0-1.23,6.18c-.08,37.17-.14,74.33,0,111.5,0,4.61-1.25,6.11-5.92,6-11.14-.31-22.3-.1-34.21-.1v-6.05c0-35.17-.29-70.33.23-105.49.11-7.55-3.28-13.32-5.93-19.53-2.34-5.48-6.28-10.24-9-15.56-9.2-17.75-18.11-35.65-27.29-53.41-6-11.53-12.27-22.89-18.33-34.38-6.32-12-12.47-24-18.82-36-1.55-2.91-3.59-5.56-5.41-8.33Z"/><path class="cls-1" d="M854.39,513.06h73.72v40.81H814.71V274.18c12.29,0,24.39-.07,36.5.05,2.68,0,3.25,2,3.23,4.52-.1,14,0,28,0,42q0,92.94,0,185.88C854.39,508.57,854.39,510.53,854.39,513.06Z"/><path class="cls-1" d="M1012.41,513.13h63.23c2.33,0,4.67.12,7,0,4.32-.26,5.87,1.76,5.8,5.95q-.23,14.74,0,29.49c.06,3.39-1,4.72-4.53,4.72q-53.48-.15-107,0c-5.11,0-4.58-2.89-4.58-6.14q0-112.21,0-224.43c0-14.16.11-28.33-.06-42.49-.05-4.45,1.4-6.31,6-6.18,9.32.25,18.67.33,28,0,4.83-.19,6.17,1.3,6.16,6.14q-.22,113-.1,225.93C1012.41,508.22,1012.41,510.35,1012.41,513.13Z"/><path class="cls-1" d="M642.63,214.5a53,53,0,0,1-5.37.62c-8.5.05-17-.16-25.49.12-3.19.11-4.8-1.35-6.31-3.66-9.29-14.29-18.7-28.51-27.89-42.87C570.69,158,564.13,147,557.29,136.2c-1.1-1.73-2.91-3-4.4-4.5l-1.51.79v5.21q0,35.24,0,70.49c0,6.44-.5,6.93-6.73,6.95s-12.34-.19-18.49.08c-3.68.16-5-.93-4.85-4.75.25-9.49.08-19,.08-28.49,0-54.49.07-109-.11-163.47,0-5,1.19-6.67,6.36-6.48,11,.39,22-.26,33,.22,11.8.52,23.85,1,34.68,6.36,17.39,8.67,27.74,22.53,30.21,42.22,1.49,11.87,1.29,23.43-3.11,34.61-4.64,11.8-11.61,21.82-23.38,27.63-3.19,1.57-6.68,2.57-9.74,4.33-.84.48-1.38,3.2-.82,4.16,3.76,6.31,7.81,12.44,11.85,18.57q15.56,23.59,31.2,47.12c2.87,4.32,5.93,8.51,8.83,12.81A46.52,46.52,0,0,1,642.63,214.5ZM551.48,105c9-1,17.7-1.18,25.88-3.22,7.79-1.94,15-6.61,17.49-14.75,2-6.49,2.26-13.65,2.25-20.51,0-8.7-7.85-18.86-15.67-21a105.75,105.75,0,0,0-16.17-3.2c-4.52-.52-9.14-.11-13.78-.11Z"/><path class="cls-1" d="M906.54,0l88.32,213.59c-1.31.65-2.15,1.43-3,1.44-8.66.1-17.34.38-26-.15-1.79-.11-4.05-3.08-4.95-5.22-5.38-12.81-10.44-25.76-15.57-38.67-.6-1.5-1-3.07-1.5-4.71H865.24c-6.27,14.67-12.66,29.29-18.74,44-1.46,3.55-3.27,5.07-7.24,4.92-8.13-.3-16.28-.09-25.42-.09,1.09-4,1.67-7.65,3-10.94,3.26-7.83,6.93-15.49,10.38-23.24,3.73-8.37,7.47-16.74,11.1-25.15,4.35-10.1,8.58-20.25,12.87-30.38Q859.9,105,868.57,84.55c5.19-12.16,10.45-24.29,15.68-36.44l20.67-48Zm24.91,135.62L906.11,72.31c-6.28,5.56-6.84,13.56-10.07,20-3.52,7-5.93,14.55-9,21.81-2.9,7-6,13.87-9.26,21.52Z"/><path class="cls-1" d="M1492.12,118.43H1486c-20,0-40,.1-60-.08-4.11,0-5.48,1.18-5.43,5.36.19,18.65.08,37.31.09,56,0,1.3.14,2.6.25,4.54h5.54c20.82,0,41.64.1,62.46-.08,4.71,0,6.71,1.42,6.48,6.3-.28,6,0,12-.08,18-.07,5.74-1.06,6.71-6.63,6.71-30.65,0-61.3-.09-91.95.11-4.54,0-5.5-1.42-5.49-5.71q.2-95.7,0-191.39c0-4.9,1.46-6.14,6.21-6.11,30,.2,60,.1,89.95.1,7.78,0,7.95.18,7.95,7.68q0,7.75,0,15.49c0,6.57-.26,6.84-6.7,6.84-20.82,0-41.65.14-62.46-.1-4.52-.05-5.68,1.43-5.59,5.68q.34,18,0,36c-.07,3.77,1.18,4.83,4.87,4.8,20.15-.15,40.31-.08,60.47-.06,2,0,3.93.22,6.16.35Z"/><path class="cls-1" d="M782.38,13.3c0,8.69-.07,16.85,0,25,0,4.13-2.86,3.83-5.47,3.84-13.83,0-27.66,0-41.49,0H708.14V88.44h64.59c6.14,0,6.58.4,6.63,6.4.05,6.17-.18,12.34.08,18.49.17,4-1.38,5.18-5.24,5.16-20.16-.14-40.33.09-60.49-.17-4.92-.07-6.15,1.5-6.08,6.21.25,18,.1,36,.1,54V184c2.12.1,3.88.26,5.63.26q31.24,0,62.49,0c6.4,0,6.51.15,6.51,6.39s-.09,12.67,0,19c.07,3.73-1.35,5.55-5.24,5.55q-47.24-.07-94.48,0c-4.22,0-4.36-2.47-4.35-5.57,0-18.33,0-36.66,0-55,0-45.49.07-91-.1-136.47,0-4.61,1.45-6.08,5.91-6.06,30.49.11,61,0,91.48.11C777.75,12.19,779.83,12.86,782.38,13.3Z"/><path class="cls-1" d="M474.32,164.88c0,12.72.12,24-.13,35.28a6.62,6.62,0,0,1-2.83,4.78,114.48,114.48,0,0,1-34.7,12.4c-18.7,3.66-36.26-.24-52.88-7.66C373,204.86,363,197.84,355.55,188c-5.33-7-11.68-13.51-15.87-21.17a106.17,106.17,0,0,1-9.88-26.1,133.07,133.07,0,0,1-3.28-28.37,99.15,99.15,0,0,1,6.75-37.2c7.85-20.41,20.38-37.76,38.24-50.75,8.89-6.47,18.91-10.6,29.64-13.47a92.91,92.91,0,0,1,40.63-1.46c10.57,1.88,21.18,5.38,29.93,12.4,1.24,1,2.53,2.81,2.56,4.28.22,10,.15,20,.07,30,0,1-.7,2-1.18,3.24l-14-9.8a61.23,61.23,0,0,0-41.06-11.29A58.8,58.8,0,0,0,378.45,57.7c-7.1,7.75-13.13,15.94-16.57,25.87-4.37,12.58-7,25.42-4.48,38.78,1.47,7.71,2.41,15.71,5.23,22.93a69.57,69.57,0,0,0,22.09,29.43c14,11.12,29.76,14.9,46.91,13.26,10.2-1,19.49-5.4,27.77-11.58C464.06,172.92,468.59,169.31,474.32,164.88Z"/><path class="cls-1" d="M1363.34,13.59l-83,215.55h-1.44q-1.86-4.94-3.71-9.88c-5.27-13.93-10.58-27.85-15.81-41.8q-9-24.08-18-48.19c-8.13-21.91-16.16-43.85-24.35-65.73-5.56-14.85-11.36-29.62-17-44.44-2.62-6.9-2.56-6.93,4.53-6.93q10.25,0,20.5,0c2.54,0,4.35.26,5.51,3.48,6.69,18.64,13.78,37.13,20.75,55.67,6.55,17.42,13.19,34.8,19.63,52.25,3,8.12,5.64,16.38,9.58,24.64,1.67-4.29,3.4-8.56,5-12.87,4.31-11.52,8.54-23.06,12.85-34.58q8.75-23.43,17.55-46.84c4.71-12.56,9.34-25.16,14.25-37.64.65-1.64,2.7-3.82,4.17-3.88,8.65-.36,17.32-.21,26-.11C1361.32,12.29,1362.21,13.06,1363.34,13.59Z"/><path class="cls-1" d="M1038.38,42.16c-12.63,0-24.6-.18-36.56.09-4.46.1-5.85-1.38-5.63-5.72.32-6.32.31-12.67,0-19-.21-4.3,1.75-5.45,5.56-5.43,13.67.07,27.33,0,41,0h60.5c7.25,0,8.13.92,8.13,8.37,0,5.17,0,10.33,0,15.5,0,4.15-1.47,6.32-6.16,6.23-12-.24-24-.08-36.84-.08v6.52q0,78.49,0,157a42.56,42.56,0,0,1-.11,5c-.35,3-1.55,4.74-5.13,4.56a139.91,139.91,0,0,0-18.48,0c-4.48.38-5.3-2.42-6.17-5.4-.4-1.39-.1-3-.1-4.48q0-78.24,0-156.49C1038.38,46.92,1038.38,44.94,1038.38,42.16Z"/><path class="cls-1" d="M1169.43,113.69c0,31.82-.1,63.65.11,95.47,0,4.83-1.32,6.4-6.13,6.08a162.18,162.18,0,0,0-18,0c-4.25.19-5.74-1.72-5.58-5.61,0-1,0-2,0-3q0-93.47,0-186.95c0-7.5,0-7.5,7.53-7.51,5.5,0,11,.26,16.49-.08,4.43-.28,5.69,1.27,5.66,5.66C1169.36,49.71,1169.43,81.7,1169.43,113.69Z"/></svg>