<svg id="Calque_1" data-name="Calque 1" xmlns="http://www.w3.org/2000/svg" viewBox="0 0 270.01 139.67"><defs><style>.cls-1{fill:#fff;}</style></defs><title>Plan de travail 1</title><rect class="cls-1" x="50.48" y="31.58" width="0.5" height="31.6"/><rect class="cls-1" x="100.63" y="31.58" width="0.5" height="31.6"/><rect class="cls-1" x="153.52" y="31.58" width="0.5" height="31.6"/><rect class="cls-1" x="202.65" y="31.58" width="0.5" height="31.6"/><path class="cls-1" d="M32,32.41a.83.83,0,0,1,.83-.83h3.89a.83.83,0,0,1,.83.83V62.36a.83.83,0,0,1-.83.83H32.82a.83.83,0,0,1-.83-.83Z"/><path class="cls-1" d="M124.24,32.12a1.38,1.38,0,0,1,1.16-.76h3.49a1.38,1.38,0,0,1,1.16.76L143.3,62.43a.5.5,0,0,1-.5.76h-4.21a1.35,1.35,0,0,1-1.15-.77l-2.56-6.1a1.35,1.35,0,0,0-1.15-.77H120.44a1.37,1.37,0,0,0-1.16.76l-2.6,6.1a1.37,1.37,0,0,1-1.16.76h-4a.5.5,0,0,1-.5-.76Zm7.45,18.52a.51.51,0,0,0,.5-.76l-4.81-11.12c-.18-.42-.48-.42-.66,0L122,49.87a.51.51,0,0,0,.5.76Z"/><path class="cls-1" d="M223.17,37.56a.83.83,0,0,0-.83-.83H214a.83.83,0,0,1-.83-.83V32.41a.83.83,0,0,1,.83-.83h24a.83.83,0,0,1,.83.83V35.9a.83.83,0,0,1-.83.83H229.6a.83.83,0,0,0-.83.83v24.8a.83.83,0,0,1-.83.83H224a.83.83,0,0,1-.83-.83Z"/><path class="cls-1" d="M61.92,47.71v-.09a16,16,0,0,1,16.3-16.34,16.48,16.48,0,0,1,12.37,4.92L87,40.3c-2.53-2.35-5.24-3.93-8.85-3.93-6.05,0-10.43,5-10.43,11.15v.09c0,6.19,4.38,11.24,10.43,11.24,3.88,0,6.36-1.58,9.07-4.11l3.57,3.61A16.31,16.31,0,0,1,78,64,15.9,15.9,0,0,1,61.92,47.71Z"/><path class="cls-1" d="M192.51,62.52l-8.05-11.29C188.89,50,192,46.84,192,41.65v-.09a9.54,9.54,0,0,0-2.62-6.82c-2-2-5.15-3.16-9.12-3.16H167a.83.83,0,0,0-.83.83V62.36a.83.83,0,0,0,.83.83h3.89a.83.83,0,0,0,.83-.83V53a.83.83,0,0,1,.83-.83h5.29a1.8,1.8,0,0,1,1.31.68L186,62.51a1.8,1.8,0,0,0,1.31.68h4.89C192.62,63.19,192.78,62.89,192.51,62.52Zm-20-15.27a.83.83,0,0,1-.83-.83v-9a.83.83,0,0,1,.83-.83h7.25c4.11,0,6.55,1.85,6.55,5.24V42c0,3.21-2.53,5.28-6.5,5.28Z"/><path class="cls-1" d="M32,87H33.4v6.59h3.38v1.22H32Z"/><path class="cls-1" d="M37.14,86.84h1.29l-.81,2.41h-1Z"/><path class="cls-1" d="M41.9,89a2.43,2.43,0,0,1,2.49,2.66c0,.17,0,.54,0,.54H40.48a1.6,1.6,0,0,0,1.68,1.49,2.77,2.77,0,0,0,1.62-.62l.54,1a3.51,3.51,0,0,1-2.26.8A2.87,2.87,0,0,1,39,92,2.77,2.77,0,0,1,41.9,89ZM43,91.29a1.08,1.08,0,0,0-1.11-1.17,1.31,1.31,0,0,0-1.34,1.17ZM42.1,87h1.44l-1.16,1.5H41.26Z"/><path class="cls-1" d="M48.18,89a2.86,2.86,0,0,1,2.16.84l-.62,1a2.2,2.2,0,0,0-1.46-.61A1.67,1.67,0,0,0,46.55,92a1.71,1.71,0,0,0,1.75,1.76A2.58,2.58,0,0,0,50,93l.54,1a3.2,3.2,0,0,1-2.31.91,2.94,2.94,0,1,1,0-5.87Z"/><path class="cls-1" d="M54.2,89A2.94,2.94,0,1,1,51.12,92,3,3,0,0,1,54.2,89Zm0,4.69A1.75,1.75,0,1,0,52.54,92,1.67,1.67,0,0,0,54.21,93.73Z"/><path class="cls-1" d="M58.33,87h1.39v5.85c0,.62.21.77.57.77h.21v1.22a3.17,3.17,0,0,1-.44,0c-.77,0-1.73-.2-1.73-1.8Z"/><path class="cls-1" d="M64,89a2.43,2.43,0,0,1,2.49,2.66c0,.17,0,.54,0,.54H62.57a1.6,1.6,0,0,0,1.68,1.49,2.77,2.77,0,0,0,1.62-.62l.54,1a3.51,3.51,0,0,1-2.26.8,2.87,2.87,0,0,1-3-2.94A2.77,2.77,0,0,1,64,89Zm1.08,2.24A1.08,1.08,0,0,0,64,90.12a1.31,1.31,0,0,0-1.34,1.17Z"/><path class="cls-1" d="M72.46,89a1.76,1.76,0,0,1,1.62.71h0s0-.14,0-.32V87h1.4v7.81H74.16v-.46a2.85,2.85,0,0,1,0-.36h0a2,2,0,0,1-1.76,1c-1.52,0-2.49-1.2-2.49-2.94S71,89,72.46,89Zm.26,4.7c.73,0,1.41-.53,1.41-1.77,0-.87-.46-1.73-1.4-1.73-.77,0-1.41.63-1.41,1.74S71.9,93.74,72.72,93.74Z"/><path class="cls-1" d="M76.94,89.17h1.4V92.5c0,.68.18,1.14.87,1.14a1.69,1.69,0,0,0,1.57-1.89V89.17h1.4v5.61H80.84v-.64a3.57,3.57,0,0,1,0-.4h0a2.16,2.16,0,0,1-1.95,1.17c-1.2,0-1.95-.61-1.95-2.13Z"/><path class="cls-1" d="M86.39,89.17h1.34v.65a3.48,3.48,0,0,1,0,.39h0A2.12,2.12,0,0,1,89.56,89,1.55,1.55,0,0,1,91.2,90.2h0A2.19,2.19,0,0,1,93.14,89C94.3,89,95,89.7,95,91.18v3.61h-1.4V91.44c0-.64-.12-1.12-.77-1.12a1.46,1.46,0,0,0-1.35,1.28,3,3,0,0,0-.07.73v2.46H90V91.44c0-.61-.1-1.12-.76-1.12a1.48,1.48,0,0,0-1.37,1.29,2.92,2.92,0,0,0-.07.72v2.46h-1.4Z"/><path class="cls-1" d="M99.29,91.27h.19v-.08c0-.74-.46-1-1.08-1a3,3,0,0,0-1.54.54l-.53-1a3.79,3.79,0,0,1,2.2-.69,2.08,2.08,0,0,1,2.33,2.23v3.51H99.57v-.46a3.55,3.55,0,0,1,0-.4h0a1.82,1.82,0,0,1-1.71,1A1.76,1.76,0,0,1,96,93.17C96,91.39,98.37,91.27,99.29,91.27Zm-1.07,2.56a1.44,1.44,0,0,0,1.27-1.47v-.13h-.24c-.72,0-1.87.1-1.87.88A.75.75,0,0,0,98.22,93.83Z"/><path class="cls-1" d="M102.31,89.17h1.34v.65a3.48,3.48,0,0,1,0,.39h0a2.18,2.18,0,0,1,2-1.17c1.24,0,1.95.65,1.95,2.13v3.61H106.2V91.46c0-.68-.18-1.14-.89-1.14a1.55,1.55,0,0,0-1.51,1.14,2.38,2.38,0,0,0-.1.75v2.57h-1.4Z"/><path class="cls-1" d="M111.9,91.27h.19v-.08c0-.74-.46-1-1.08-1a3,3,0,0,0-1.54.54l-.53-1a3.79,3.79,0,0,1,2.2-.69,2.08,2.08,0,0,1,2.33,2.23v3.51h-1.29v-.46a3.55,3.55,0,0,1,0-.4h0a1.82,1.82,0,0,1-1.71,1,1.76,1.76,0,0,1-1.9-1.75C108.58,91.39,111,91.27,111.9,91.27Zm-1.07,2.56a1.44,1.44,0,0,0,1.27-1.47v-.13h-.24c-.72,0-1.87.1-1.87.88A.75.75,0,0,0,110.83,93.83Z"/><path class="cls-1" d="M117.05,95.91c.86,0,1.58-.36,1.58-1.36v-.33a2.7,2.7,0,0,1,0-.3h0a1.71,1.71,0,0,1-1.56.76,2.58,2.58,0,0,1-2.52-2.84A2.51,2.51,0,0,1,117,89a1.91,1.91,0,0,1,1.66.71h0a1,1,0,0,1,0-.15v-.43H120v5.27c0,1.92-1.5,2.65-3,2.65a4.47,4.47,0,0,1-2-.48l.42-1.07A3.77,3.77,0,0,0,117.05,95.91Zm1.62-4.06c0-1.28-.63-1.62-1.39-1.62s-1.32.62-1.32,1.56.51,1.71,1.41,1.71C118,93.5,118.67,93.11,118.67,91.85Z"/><path class="cls-1" d="M124,89a2.43,2.43,0,0,1,2.49,2.66c0,.17,0,.54,0,.54H122.6a1.6,1.6,0,0,0,1.68,1.49,2.77,2.77,0,0,0,1.62-.62l.54,1a3.51,3.51,0,0,1-2.26.8,2.87,2.87,0,0,1-3-2.94A2.77,2.77,0,0,1,124,89Zm1.08,2.24A1.08,1.08,0,0,0,124,90.12a1.31,1.31,0,0,0-1.34,1.17Z"/><path class="cls-1" d="M127.66,89.17H129v.65a3.48,3.48,0,0,1,0,.39h0A2.12,2.12,0,0,1,130.83,89a1.55,1.55,0,0,1,1.64,1.15h0A2.19,2.19,0,0,1,134.41,89c1.17,0,1.84.66,1.84,2.13v3.61h-1.4V91.44c0-.64-.12-1.12-.77-1.12a1.46,1.46,0,0,0-1.35,1.28,3,3,0,0,0-.07.73v2.46h-1.4V91.44c0-.61-.1-1.12-.76-1.12a1.48,1.48,0,0,0-1.37,1.29,2.92,2.92,0,0,0-.07.72v2.46h-1.4Z"/><path class="cls-1" d="M140.16,89a2.43,2.43,0,0,1,2.49,2.66c0,.17,0,.54,0,.54h-3.87a1.6,1.6,0,0,0,1.68,1.49,2.77,2.77,0,0,0,1.62-.62l.54,1a3.51,3.51,0,0,1-2.26.8,2.87,2.87,0,0,1-3-2.94A2.77,2.77,0,0,1,140.16,89Zm1.08,2.24a1.08,1.08,0,0,0-1.11-1.17,1.31,1.31,0,0,0-1.34,1.17Z"/><path class="cls-1" d="M143.8,89.17h1.34v.65a3.5,3.5,0,0,1,0,.39h0a2.18,2.18,0,0,1,2-1.17c1.24,0,1.95.65,1.95,2.13v3.61H147.7V91.46c0-.68-.18-1.14-.89-1.14a1.55,1.55,0,0,0-1.51,1.14,2.38,2.38,0,0,0-.1.75v2.57h-1.4Z"/><path class="cls-1" d="M150.79,90.37h-.73V89.26h.76V87.65h1.36v1.62h1.28v1.11h-1.28v2.18a1,1,0,0,0,1.11,1.06,1.29,1.29,0,0,0,.25,0v1.22a2.4,2.4,0,0,1-.43,0,2.05,2.05,0,0,1-2.33-2.11Z"/><path class="cls-1" d="M33.91,102.24a1.76,1.76,0,0,1,1.62.71h0s0-.14,0-.32v-2.46h1.4V108H35.62v-.46a2.85,2.85,0,0,1,0-.36h0a2,2,0,0,1-1.76,1c-1.52,0-2.49-1.2-2.49-2.94S32.43,102.24,33.91,102.24Zm.26,4.7c.73,0,1.41-.53,1.41-1.77,0-.87-.46-1.73-1.4-1.73-.77,0-1.41.63-1.41,1.74S33.35,106.94,34.18,106.94Z"/><path class="cls-1" d="M40.93,102.24a2.43,2.43,0,0,1,2.49,2.66c0,.17,0,.54,0,.54H39.51a1.6,1.6,0,0,0,1.68,1.49,2.77,2.77,0,0,0,1.62-.62l.54,1a3.51,3.51,0,0,1-2.26.8,2.87,2.87,0,0,1-3-2.94A2.77,2.77,0,0,1,40.93,102.24ZM42,104.49a1.08,1.08,0,0,0-1.11-1.17,1.31,1.31,0,0,0-1.34,1.17Z"/><path class="cls-1" d="M47.17,100.17h1.39V106c0,.62.21.77.57.77h.21V108a3.17,3.17,0,0,1-.44,0c-.77,0-1.73-.2-1.73-1.8Z"/><path class="cls-1" d="M53.22,104.47h.19v-.08c0-.74-.46-1-1.08-1a3,3,0,0,0-1.54.54l-.53-1a3.79,3.79,0,0,1,2.2-.69,2.08,2.08,0,0,1,2.33,2.23V108H53.5v-.46a3.57,3.57,0,0,1,0-.4h0a1.82,1.82,0,0,1-1.71,1,1.76,1.76,0,0,1-1.9-1.75C49.9,104.59,52.31,104.47,53.22,104.47ZM52.15,107a1.44,1.44,0,0,0,1.27-1.47v-.13h-.24c-.72,0-1.87.1-1.87.88A.75.75,0,0,0,52.15,107Z"/><path class="cls-1" d="M61.56,102.24a2.86,2.86,0,0,1,2.16.84l-.62,1a2.2,2.2,0,0,0-1.46-.6,1.67,1.67,0,0,0-1.71,1.74,1.71,1.71,0,0,0,1.75,1.76,2.58,2.58,0,0,0,1.65-.72l.54,1a3.2,3.2,0,0,1-2.31.91,2.94,2.94,0,1,1,0-5.87Z"/><path class="cls-1" d="M64.83,102.38h1.4v3.32c0,.68.18,1.14.87,1.14a1.69,1.69,0,0,0,1.57-1.89v-2.57h1.4V108H68.73v-.64a3.57,3.57,0,0,1,0-.4h0a2.16,2.16,0,0,1-1.95,1.17c-1.2,0-1.95-.61-1.95-2.13Z"/><path class="cls-1" d="M71.53,100.17h1.39V106c0,.62.21.77.57.77h.21V108a3.17,3.17,0,0,1-.44,0c-.77,0-1.73-.2-1.73-1.8Z"/><path class="cls-1" d="M74.94,103.57h-.73v-1.11H75v-1.62h1.36v1.62h1.28v1.11H76.34v2.18a1,1,0,0,0,1.11,1.06,1.29,1.29,0,0,0,.25,0V108a2.4,2.4,0,0,1-.43,0,2.05,2.05,0,0,1-2.33-2.11Z"/><path class="cls-1" d="M78.77,102.38h1.4v3.32c0,.68.18,1.14.87,1.14a1.69,1.69,0,0,0,1.57-1.89v-2.57H84V108H82.66v-.64a3.57,3.57,0,0,1,0-.4h0a2.16,2.16,0,0,1-1.95,1.17c-1.2,0-1.95-.61-1.95-2.13Z"/><path class="cls-1" d="M85.55,102.38h1.34v1a3.84,3.84,0,0,1,0,.4h0a1.93,1.93,0,0,1,1.78-1.44,1.6,1.6,0,0,1,.25,0v1.38a2.41,2.41,0,0,0-.33,0,1.59,1.59,0,0,0-1.53,1.18,3,3,0,0,0-.12.91V108h-1.4Z"/><path class="cls-1" d="M92.32,102.24a2.43,2.43,0,0,1,2.49,2.66c0,.17,0,.54,0,.54H90.9a1.6,1.6,0,0,0,1.68,1.49,2.77,2.77,0,0,0,1.62-.62l.54,1a3.51,3.51,0,0,1-2.26.8,2.87,2.87,0,0,1-3-2.94A2.77,2.77,0,0,1,92.32,102.24Zm1.08,2.24a1.08,1.08,0,0,0-1.11-1.17,1.31,1.31,0,0,0-1.34,1.17Z"/><path class="cls-1" d="M101.09,102.24a2.43,2.43,0,0,1,2.49,2.66c0,.17,0,.54,0,.54H99.67a1.6,1.6,0,0,0,1.68,1.49,2.77,2.77,0,0,0,1.62-.62l.54,1a3.51,3.51,0,0,1-2.26.8,2.87,2.87,0,0,1-3-2.94A2.77,2.77,0,0,1,101.09,102.24Zm1.08,2.24a1.08,1.08,0,0,0-1.11-1.17,1.31,1.31,0,0,0-1.34,1.17Z"/><path class="cls-1" d="M105,103.57h-.73v-1.11H105v-1.62h1.36v1.62h1.28v1.11h-1.28v2.18a1,1,0,0,0,1.11,1.06,1.29,1.29,0,0,0,.25,0V108a2.4,2.4,0,0,1-.43,0,2.05,2.05,0,0,1-2.33-2.11Z"/><path class="cls-1" d="M113.71,102.24a1.76,1.76,0,0,1,1.62.71h0s0-.14,0-.32v-2.46h1.4V108h-1.32v-.46a2.85,2.85,0,0,1,0-.36h0a2,2,0,0,1-1.76,1c-1.52,0-2.49-1.2-2.49-2.94S112.22,102.24,113.71,102.24Zm.26,4.7c.73,0,1.41-.53,1.41-1.77,0-.87-.46-1.73-1.4-1.73-.77,0-1.41.63-1.41,1.74S113.14,106.94,114,106.94Z"/><path class="cls-1" d="M118.19,102.38h1.4v3.32c0,.68.18,1.14.87,1.14a1.69,1.69,0,0,0,1.57-1.89v-2.57h1.4V108h-1.34v-.64a3.57,3.57,0,0,1,0-.4h0a2.16,2.16,0,0,1-1.95,1.17c-1.2,0-1.95-.61-1.95-2.13Z"/><path class="cls-1" d="M127.64,102.38H129V103a3.5,3.5,0,0,1,0,.39h0a2.12,2.12,0,0,1,1.83-1.17,1.55,1.55,0,0,1,1.64,1.15h0a2.19,2.19,0,0,1,1.91-1.15c1.17,0,1.84.66,1.84,2.13V108h-1.4v-3.34c0-.64-.12-1.12-.77-1.12a1.46,1.46,0,0,0-1.35,1.28,3,3,0,0,0-.07.73V108h-1.4v-3.34c0-.61-.1-1.12-.76-1.12a1.48,1.48,0,0,0-1.37,1.29,2.93,2.93,0,0,0-.07.72V108h-1.4Z"/><path class="cls-1" d="M140.54,104.47h.19v-.08c0-.74-.46-1-1.08-1a3,3,0,0,0-1.54.54l-.53-1a3.78,3.78,0,0,1,2.2-.69,2.08,2.08,0,0,1,2.33,2.23V108h-1.29v-.46a3.57,3.57,0,0,1,0-.4h0a1.82,1.82,0,0,1-1.71,1,1.76,1.76,0,0,1-1.9-1.75C137.21,104.59,139.62,104.47,140.54,104.47ZM139.47,107a1.44,1.44,0,0,0,1.27-1.47v-.13h-.24c-.72,0-1.87.1-1.87.88A.75.75,0,0,0,139.47,107Z"/><path class="cls-1" d="M143.56,102.38h1.34v1a3.84,3.84,0,0,1,0,.4h0a1.93,1.93,0,0,1,1.78-1.44,1.6,1.6,0,0,1,.25,0v1.38a2.41,2.41,0,0,0-.33,0,1.59,1.59,0,0,0-1.53,1.18,3,3,0,0,0-.12.91V108h-1.4Z"/><path class="cls-1" d="M150.52,102.24a2.86,2.86,0,0,1,2.16.84l-.62,1a2.2,2.2,0,0,0-1.46-.6,1.67,1.67,0,0,0-1.71,1.74,1.71,1.71,0,0,0,1.75,1.76,2.58,2.58,0,0,0,1.65-.72l.54,1a3.2,3.2,0,0,1-2.31.91,2.94,2.94,0,1,1,0-5.87Z"/><path class="cls-1" d="M153.88,100.17h1.4v2.71c0,.27,0,.47,0,.47h0a2.16,2.16,0,0,1,1.94-1.11c1.24,0,1.95.65,1.95,2.13V108h-1.39v-3.32c0-.68-.18-1.14-.89-1.14a1.58,1.58,0,0,0-1.52,1.17,2.53,2.53,0,0,0-.09.73V108h-1.4Z"/><path class="cls-1" d="M163.07,102.24a2.43,2.43,0,0,1,2.49,2.66c0,.17,0,.54,0,.54h-3.87a1.6,1.6,0,0,0,1.68,1.49,2.77,2.77,0,0,0,1.62-.62l.54,1a3.51,3.51,0,0,1-2.26.8,2.87,2.87,0,0,1-3-2.94A2.77,2.77,0,0,1,163.07,102.24Zm1.08,2.24a1.08,1.08,0,0,0-1.11-1.17,1.31,1.31,0,0,0-1.34,1.17Zm-.88-4.3h1.44l-1.16,1.5h-1.12Z"/><path class="cls-1" d="M171.54,102.24a1.76,1.76,0,0,1,1.62.71h0s0-.14,0-.32v-2.46h1.4V108h-1.32v-.46a2.85,2.85,0,0,1,0-.36h0a2,2,0,0,1-1.76,1c-1.52,0-2.49-1.2-2.49-2.94S170.06,102.24,171.54,102.24Zm.26,4.7c.73,0,1.41-.53,1.41-1.77,0-.87-.46-1.73-1.4-1.73-.77,0-1.41.63-1.41,1.74S171,106.94,171.81,106.94Z"/><path class="cls-1" d="M178.56,102.24a2.43,2.43,0,0,1,2.49,2.66c0,.17,0,.54,0,.54h-3.87a1.6,1.6,0,0,0,1.68,1.49,2.77,2.77,0,0,0,1.62-.62l.54,1a3.51,3.51,0,0,1-2.26.8,2.87,2.87,0,0,1-3-2.94A2.77,2.77,0,0,1,178.56,102.24Zm1.08,2.24a1.08,1.08,0,0,0-1.11-1.17,1.31,1.31,0,0,0-1.34,1.17Z"/><path class="cls-1" d="M184.8,100.17h1.39V106c0,.62.21.77.57.77H187V108a3.17,3.17,0,0,1-.44,0c-.77,0-1.73-.2-1.73-1.8Z"/><path class="cls-1" d="M188.23,100h1.29l-.81,2.41h-1Z"/><path class="cls-1" d="M193.39,104.47h.19v-.08c0-.74-.46-1-1.08-1a3,3,0,0,0-1.54.54l-.53-1a3.79,3.79,0,0,1,2.2-.69,2.08,2.08,0,0,1,2.33,2.23V108h-1.29v-.46a3.57,3.57,0,0,1,0-.4h0a1.82,1.82,0,0,1-1.71,1,1.76,1.76,0,0,1-1.9-1.75C190.07,104.59,192.48,104.47,193.39,104.47ZM192.32,107a1.44,1.44,0,0,0,1.27-1.47v-.13h-.24c-.72,0-1.87.1-1.87.88A.75.75,0,0,0,192.32,107Z"/><path class="cls-1" d="M196.41,102.38h1.34v1a3.84,3.84,0,0,1,0,.4h0a1.93,1.93,0,0,1,1.78-1.44,1.6,1.6,0,0,1,.25,0v1.38a2.41,2.41,0,0,0-.33,0,1.59,1.59,0,0,0-1.53,1.18,3,3,0,0,0-.12.91V108h-1.4Z"/><path class="cls-1" d="M201,103.57h-.73v-1.11H201v-1.62h1.36v1.62h1.28v1.11h-1.28v2.18a1,1,0,0,0,1.11,1.06,1.29,1.29,0,0,0,.25,0V108a2.4,2.4,0,0,1-.43,0,2.05,2.05,0,0,1-2.33-2.11Z"/></svg>