<svg id="Layer_1" data-name="Layer 1" xmlns="http://www.w3.org/2000/svg" viewBox="0 0 291.97 121.22"><defs><style>.cls-1{fill:#fff;}</style></defs><title>Artboard 3</title><path class="cls-1" d="M202,1.21V91h89.93V1.21Zm67,23.22a21.68,21.68,0,0,1,16.82,8H260.76l8-8Zm17.81,9.3a21.51,21.51,0,0,1,3.87,11.83c0,.15,0,.3,0,.45l-20.75,0ZM262.58,51.32l7-5.12,21.07,0c0,.24,0,.49,0,.73A21.7,21.7,0,0,1,269,67.75h-.21l-1.12-1.12Zm27.66,1.07a43.44,43.44,0,0,1-12.3,24.47l-8.69-8.68A22.18,22.18,0,0,0,290.24,52.4Zm-3.06-18.93,1.34-1a44.23,44.23,0,0,1,1.53,6.19c.06.35.1.7.15,1A22.06,22.06,0,0,0,287.19,33.46Zm-.77-1A22.13,22.13,0,0,0,269.22,24L278,15.26a43.19,43.19,0,0,1,10.56,17.16ZM268.9,24a22.06,22.06,0,0,0-13.58,4.74l.15.46a21.61,21.61,0,0,1,13-4.73l-8,8h-3.95l-1-3.24a21.64,21.64,0,0,0,12.59,38.54l-.2-.61.62.62h-.42l.15.46.73,0L277.79,77a43.71,43.71,0,0,1-5.09,4.32c-.26-.81-.56-1.6-.89-2.38l.81,2.44-.31.22A26.73,26.73,0,0,0,247,62.91h-.23a26.74,26.74,0,0,0-25.46,18.59l-.3-.22.79-2.37c-.32.75-.62,1.52-.87,2.31A44.22,44.22,0,0,1,216.06,77l9.55-9.54L221.81,78.9a27.21,27.21,0,0,1,34.43-14.76,22.06,22.06,0,0,1-.92-35.41L247,2.38a43.53,43.53,0,0,1,25.19,8,44.25,44.25,0,0,1,5.61,4.71ZM246.77,89.76a43.54,43.54,0,0,1-25.1-8l-.32-.24L246.77,63ZM247,63l25.26,18.67A43.91,43.91,0,0,1,247,89.76Zm-9.85-30.56h-3.72L216.08,15.1a43.92,43.92,0,0,1,30.7-12.71Zm-4,0H205.38L223.94,46l-20.77,0a43.42,43.42,0,0,1,12.76-30.74Zm-30,13.8,21.09,0,6.82,5L225.78,67l-9.88,9.86a43.34,43.34,0,0,1-12.11-23.41A44.14,44.14,0,0,1,203.16,46.23ZM272.63,9.76A44.32,44.32,0,0,0,252.71,2h38.23L278.34,14.55A45.06,45.06,0,0,0,272.63,9.76Zm-57.1,4.79L202.95,2h38.31A44.71,44.71,0,0,0,215.53,14.55Zm-.16.16a44.26,44.26,0,0,0-12.62,25.53V2.11Zm-12.62,37c.08.62.17,1.25.28,1.87a44.1,44.1,0,0,0,12.32,23.83L202.75,90Zm12.76,25.86A45,45,0,0,0,220.7,82a27.09,27.09,0,0,0-1.09,7.59c0,.21,0,.42,0,.62H202.88Zm4.54,12a26.65,26.65,0,0,1,1-7.31l.14.1a44.32,44.32,0,0,0,20.26,7.82h-21.4C220.07,90,220.06,89.79,220.06,89.59Zm52.48-7.17a26.65,26.65,0,0,1,1,7.17c0,.21,0,.42,0,.62h-21.2A44.73,44.73,0,0,0,272.54,82.42Zm.39-.28a44.48,44.48,0,0,0,5.4-4.55L291,90.21H274c0-.21,0-.41,0-.62A27.09,27.09,0,0,0,272.93,82.14Zm5.56-4.72a44.28,44.28,0,0,0,12.64-25.75V90Zm12.64-36.77c-.09-.7-.19-1.41-.31-2.11A44.1,44.1,0,0,0,278.5,14.72L291.14,2.1Z"/><path class="cls-1" d="M271.81,79l-3.6-10.79A22.07,22.07,0,0,1,261.88,67,27.24,27.24,0,0,1,271.81,79Z"/><path class="cls-1" d="M1.68,113.63H4.82A2.5,2.5,0,0,0,7.59,111a2.53,2.53,0,0,0-2.77-2.67H1.68v5.32Zm7.2,7.59-4.27-6.06H1.68v6.06H.06V106.79H4.88A4.06,4.06,0,0,1,9.28,111a4,4,0,0,1-2.87,4l4.37,6.26Z"/><polygon class="cls-1" points="21.91 108.32 14.73 108.32 14.73 112.74 20.22 112.74 20.22 114.27 14.73 114.27 14.73 119.69 22.16 119.69 22.16 121.22 13.1 121.22 13.1 106.79 21.91 106.79 21.91 108.32 21.91 108.32"/><path class="cls-1" d="M33.27,109l-1.19.94a3.71,3.71,0,0,0-3.14-1.82,2.17,2.17,0,0,0-2.43,2.1c0,1.31,1,1.79,2.21,2.43l1.52.77c2,1,3.2,2.08,3.2,4,0,2.43-1.89,4-4.43,4a5.73,5.73,0,0,1-5.06-3.11l1.21-.94A4.55,4.55,0,0,0,29,119.89a2.47,2.47,0,0,0,2.77-2.41c0-1.33-.94-1.86-2.29-2.54l-1.54-.77c-1.6-.81-3.1-1.84-3.1-3.87A3.86,3.86,0,0,1,29,106.55,5,5,0,0,1,33.27,109Z"/><polygon class="cls-1" points="45.5 108.32 38.32 108.32 38.32 112.74 43.82 112.74 43.82 114.27 38.32 114.27 38.32 119.69 45.75 119.69 45.75 121.22 36.7 121.22 36.7 106.79 45.5 106.79 45.5 108.32 45.5 108.32"/><path class="cls-1" d="M53.58,109.68l-2.75,7.09h5.49l-2.75-7.09Zm3.35,8.62h-6.7L49,121.22H47.33l6-14.68h.6l6,14.68H58.11l-1.19-2.93Z"/><path class="cls-1" d="M64.1,113.63h3.14A2.5,2.5,0,0,0,70,111a2.53,2.53,0,0,0-2.77-2.67H64.1v5.32Zm7.2,7.59L67,115.17H64.1v6.06H62.48V106.79h4.83A4.06,4.06,0,0,1,71.7,111a4,4,0,0,1-2.87,4l4.37,6.26Z"/><path class="cls-1" d="M87.47,109.65l-1.21,1a5.21,5.21,0,0,0-4.47-2.54,5.9,5.9,0,0,0,0,11.77,5.21,5.21,0,0,0,4.47-2.54l1.21,1a6.58,6.58,0,0,1-5.7,3.11,7.47,7.47,0,0,1,0-14.92,6.63,6.63,0,0,1,5.7,3.11Z"/><polygon class="cls-1" points="101.45 121.22 99.83 121.22 99.83 114.27 92.13 114.27 92.13 121.22 90.51 121.22 90.51 106.79 92.13 106.79 92.13 112.74 99.83 112.74 99.83 106.79 101.45 106.79 101.45 121.22 101.45 121.22"/><path class="cls-1" d="M125,115.49c0,3.85-2.33,6-5.43,6s-5.47-2.12-5.47-6v-8.71h1.62v8.82c0,2.91,1.71,4.29,3.85,4.29s3.81-1.38,3.81-4.29v-8.82H125v8.71Z"/><polygon class="cls-1" points="139.68 106.79 139.68 121.47 139.09 121.47 130.36 110.38 130.36 121.22 128.73 121.22 128.73 106.55 129.32 106.55 138.05 117.66 138.05 106.79 139.68 106.79 139.68 106.79"/><polygon class="cls-1" points="145.19 121.22 143.57 121.22 143.57 106.79 145.19 106.79 145.19 121.22 145.19 121.22"/><polygon class="cls-1" points="160.32 106.79 154.37 121.47 153.76 121.47 147.81 106.79 149.6 106.79 154.08 118.08 158.53 106.79 160.32 106.79 160.32 106.79"/><polygon class="cls-1" points="171.76 108.32 164.59 108.32 164.59 112.74 170.08 112.74 170.08 114.27 164.59 114.27 164.59 119.69 172.01 119.69 172.01 121.22 162.96 121.22 162.96 106.79 171.76 106.79 171.76 108.32 171.76 108.32"/><path class="cls-1" d="M176.47,113.63h3.14a2.5,2.5,0,0,0,2.77-2.65,2.53,2.53,0,0,0-2.77-2.67h-3.14v5.32Zm7.2,7.59-4.27-6.06h-2.93v6.06h-1.62V106.79h4.83a4.06,4.06,0,0,1,4.39,4.18,4,4,0,0,1-2.87,4l4.37,6.26Z"/><path class="cls-1" d="M196.17,109l-1.19.94a3.71,3.71,0,0,0-3.14-1.82,2.17,2.17,0,0,0-2.43,2.1c0,1.31,1,1.79,2.21,2.43l1.52.77c2,1,3.2,2.08,3.2,4,0,2.43-1.89,4-4.43,4a5.73,5.73,0,0,1-5.06-3.11l1.21-.94a4.55,4.55,0,0,0,3.83,2.47,2.47,2.47,0,0,0,2.77-2.41c0-1.33-.94-1.86-2.29-2.54l-1.54-.77c-1.6-.81-3.1-1.84-3.1-3.87a3.86,3.86,0,0,1,4.14-3.76,5,5,0,0,1,4.31,2.45Z"/><polygon class="cls-1" points="201.23 121.22 199.6 121.22 199.6 106.79 201.23 106.79 201.23 121.22 201.23 121.22"/><polygon class="cls-1" points="214.9 108.32 210.05 108.32 210.05 121.22 208.43 121.22 208.43 108.32 203.6 108.32 203.6 106.79 214.9 106.79 214.9 108.32 214.9 108.32"/><polygon class="cls-1" points="222.62 115.23 222.62 121.22 220.99 121.22 220.99 115.23 216.23 106.79 218.06 106.79 221.81 113.57 225.57 106.79 227.38 106.79 222.62 115.23 222.62 115.23"/><path class="cls-1" d="M240.68,108.32v5.34h3.16a2.67,2.67,0,1,0,0-5.34Zm7.59,2.65a4.08,4.08,0,0,1-4.39,4.22h-3.2v6h-1.62V106.79h4.83a4.06,4.06,0,0,1,4.39,4.18Z"/><path class="cls-1" d="M256.08,109.68l-2.75,7.09h5.49l-2.75-7.09Zm3.35,8.62h-6.7l-1.19,2.93h-1.71l6-14.68h.6l6,14.68h-1.73l-1.19-2.93Z"/><path class="cls-1" d="M266.61,113.63h3.14a2.5,2.5,0,0,0,2.77-2.65,2.53,2.53,0,0,0-2.77-2.67h-3.14v5.32Zm7.2,7.59-4.27-6.06h-2.93v6.06H265V106.79h4.83A4.06,4.06,0,0,1,274.2,111a4,4,0,0,1-2.87,4l4.37,6.26Z"/><polygon class="cls-1" points="279.65 121.22 278.03 121.22 278.03 106.79 279.65 106.79 279.65 121.22 279.65 121.22"/><path class="cls-1" d="M291.8,109l-1.19.94a3.71,3.71,0,0,0-3.14-1.82,2.17,2.17,0,0,0-2.43,2.1c0,1.31,1,1.79,2.21,2.43l1.52.77c2,1,3.2,2.08,3.2,4,0,2.43-1.89,4-4.43,4a5.73,5.73,0,0,1-5.06-3.11l1.21-.94a4.55,4.55,0,0,0,3.83,2.47,2.47,2.47,0,0,0,2.77-2.41c0-1.33-.94-1.86-2.29-2.54l-1.54-.77c-1.6-.81-3.1-1.84-3.1-3.87a3.86,3.86,0,0,1,4.14-3.76A5,5,0,0,1,291.8,109Z"/><path class="cls-1" d="M10.35,11V44.1H30.53c11.55,0,17.52-6.92,17.52-16.55S42.08,11,30.53,11ZM58.8,27.41c0,15.2-10.75,26.19-28,26.19H10.35V91H0V1.49H30.8c17.26,0,28,10.85,28,25.92Z"/><path class="cls-1" d="M123.18,15.2,115.62,21a23.79,23.79,0,0,0-20-11.26C87.48,9.77,80,14,80,22.79c0,8.14,6.11,11.13,14.07,15.06l9.69,4.75c12.74,6.24,20.44,12.89,20.44,25,0,15.06-12.08,25-28.27,25-13.94,0-25.49-7.46-32.26-19.27l7.7-5.83c5.31,8.28,13.14,15.33,24.42,15.33,10.35,0,17.65-5.83,17.65-14.93,0-8.28-6-11.53-14.6-15.74l-9.82-4.75c-10.22-5-19.78-11.4-19.78-24C69.29,9.09,81.5,0,95.71,0a32.25,32.25,0,0,1,27.48,15.2Z"/><polygon class="cls-1" points="147.68 81.55 189.23 81.55 189.23 91.04 137.33 91.04 137.33 1.49 147.68 1.49 147.68 81.55 147.68 81.55"/></svg>