<svg id="Layer_1" data-name="Layer 1" xmlns="http://www.w3.org/2000/svg" viewBox="0 0 494.09 150.94"><defs><style>.cls-1{fill:#fff;}</style></defs><title>Artboard 1</title><path class="cls-1" d="M5.08,22.77h8.49v3.69H.22V4.86h13V8.25H5.08v5.19h7.8v3.51H5.08Z"/><path class="cls-1" d="M30.33,4.86h4.56v21.6H28.11L21.66,8.85,21.72,10l.15,16.47H17.22V4.86h7.14l6.21,16.83-.06-1.2Z"/><path class="cls-1" d="M50.58,14.85c2.31,1,3.9,2.61,3.87,5.58,0,4-3.09,6.48-7.95,6.48-5.55,0-8.37-2.61-8.07-6.6l.06-.75,5,0,0,.57a2.67,2.67,0,0,0,2.94,3.06c1.68,0,2.79-1,2.79-2.37s-1-2.13-2.43-2.82l-4.14-1.89c-2.43-1.17-4.11-2.43-4.08-5.58,0-3.45,2.91-6.09,7.62-6.09s7.77,2.13,7.62,5.91l0,.69-5,0,0-.42A2.38,2.38,0,0,0,46.14,8c-1.5,0-2.58.81-2.61,2.16s1.17,2,2.52,2.64Z"/><path class="cls-1" d="M61.11,26.46h-5l6.9-21.6h6.6l5.94,21.6H70.53l-1-4.17H62.28Zm7.56-7.83L66.51,9.24l-.18-.9h-.06l-.21.9-2.79,9.39Z"/><path class="cls-1" d="M83.4,18.63v7.83H78.51V4.86h8.94a6.42,6.42,0,0,1,6.75,6.63c0,4.68-2.61,7.14-8.67,7.14Zm0-10.44V15h2.31c2.13,0,3.21-1.14,3.24-3.27s-1-3.51-3.18-3.51Z"/><path class="cls-1" d="M113.76,19.71c-.45,5.37-3.57,7.23-8.07,7.23-5.88,0-8.76-3.21-8.76-11.43,0-7.83,3.45-11.13,8.91-11.13,5.1,0,7.53,2.7,7.89,7.17h-5.28c.06-2.7-1.35-3.48-2.73-3.48-1.92,0-3.51,1.14-3.51,7.44,0,5.79,1,7.71,3.48,7.71,1.65,0,2.88-1.17,2.82-3.51Z"/><path class="cls-1" d="M182.08,22.77h8.49v3.69H177.22V4.86h13V8.25h-8.13v5.19h7.8v3.51h-7.8ZM183.49,0h4.89l-3.6,3.6h-3.21Z"/><path class="cls-1" d="M210.06,19.71c-.45,5.37-3.57,7.23-8.07,7.23-5.88,0-8.76-3.21-8.76-11.43,0-7.83,3.45-11.13,8.91-11.13,5.1,0,7.53,2.7,7.89,7.17h-5.28c.06-2.7-1.35-3.48-2.73-3.48-1.92,0-3.51,1.14-3.51,7.44,0,5.79,1,7.71,3.48,7.71,1.65,0,2.88-1.17,2.82-3.51Z"/><path class="cls-1" d="M230.19,15.54c0,8.55-3.33,11.4-8.7,11.4s-8.76-2.76-8.73-11.4c0-7.23,2.7-11.16,8.76-11.16S230.16,8.37,230.19,15.54Zm-12.36-.06c0,5.52,1.17,7.83,3.72,7.83s3.6-2.31,3.6-7.83c0-6.24-1.71-7.59-3.63-7.59S217.83,9.18,217.83,15.48Z"/><path class="cls-1" d="M238.84,22.77h7.62v3.69H233.95V4.86h4.89Z"/><path class="cls-1" d="M254.11,22.77h8.49v3.69H249.25V4.86h13V8.25h-8.13v5.19h7.8v3.51h-7.8Z"/><path class="cls-1" d="M216.07,35.86h4.56v21.6h-6.78L207.4,39.85l.06,1.14.15,16.47H203V35.86h7.14l6.21,16.83-.06-1.2Z"/><path class="cls-1" d="M228.49,57.46h-5l6.9-21.6H237L243,57.46h-5.07l-1-4.17h-7.26Zm7.56-7.83-2.16-9.39-.18-.9h-.06l-.21.9-2.79,9.39Z"/><path class="cls-1" d="M248.22,39.43h-5.76V35.86h16.2v3.57h-5.58v18h-4.86Z"/><path class="cls-1" d="M266.33,35.86v21.6h-4.86V35.86Z"/><path class="cls-1" d="M287.5,46.54c0,8.55-3.33,11.4-8.7,11.4s-8.76-2.76-8.73-11.4c0-7.23,2.7-11.16,8.76-11.16S287.47,39.37,287.5,46.54Zm-12.36-.06c0,5.52,1.17,7.83,3.72,7.83s3.6-2.31,3.6-7.83c0-6.24-1.71-7.59-3.63-7.59S275.14,40.18,275.14,46.48Z"/><path class="cls-1" d="M304.4,35.86H309v21.6h-6.78l-6.45-17.61.06,1.14.15,16.47h-4.65V35.86h7.14l6.21,16.83-.06-1.2Z"/><path class="cls-1" d="M316.82,57.46h-4.95l6.9-21.6h6.6l5.94,21.6h-5.07l-1-4.17H318Zm7.56-7.83-2.16-9.39-.18-.9H322l-.21.9L319,49.63Z"/><path class="cls-1" d="M339.11,53.77h7.62v3.69H334.22V35.86h4.89Z"/><path class="cls-1" d="M354.38,53.77h8.49v3.69H349.52V35.86h13v3.39h-8.13v5.19h7.8v3.51h-7.8Z"/><path class="cls-1" d="M239.68,76.85c2.31,1,3.9,2.61,3.87,5.58,0,4-3.09,6.48-8,6.48-5.55,0-8.37-2.61-8.07-6.6l.06-.75,5,0,0,.57a2.67,2.67,0,0,0,2.94,3.06c1.68,0,2.79-1,2.79-2.37s-1-2.13-2.43-2.82l-4.14-1.89c-2.43-1.17-4.11-2.43-4.08-5.58,0-3.45,2.91-6.09,7.62-6.09s7.77,2.13,7.62,5.91l0,.69-5,0,0-.42A2.38,2.38,0,0,0,235.24,70c-1.5,0-2.58.81-2.61,2.16s1.17,2,2.52,2.64Z"/><path class="cls-1" d="M246.73,66.86h4.89V82a3.08,3.08,0,1,0,6.15,0V66.86h4.92v14.4c0,4.8-2.79,7.68-8,7.68-5.7,0-8-2.73-8-7.68Z"/><path class="cls-1" d="M271.85,80.63v7.83H267V66.86h8.94a6.42,6.42,0,0,1,6.75,6.63c0,4.68-2.61,7.14-8.67,7.14Zm0-10.44V77h2.31c2.13,0,3.21-1.14,3.24-3.27s-1-3.51-3.18-3.51Z"/><path class="cls-1" d="M290.68,84.77h8.49v3.69H285.82V66.86h13v3.39h-8.13v5.19h7.8v3.51h-7.8ZM292.09,62H297l-3.6,3.6h-3.21Z"/><path class="cls-1" d="M309.85,79.88h-2.19v8.58H302.8V66.86H312c3.57,0,6.42,1.71,6.42,5.52A5.17,5.17,0,0,1,314,77.75c3.27.3,4.17,2.7,4.29,5.34.09,2.07.27,4.65.75,5.37h-5.16c-.48-.45-.6-3.18-.6-5.37S312,79.88,309.85,79.88Zm-2.19-9.69v6.18h2.49c2,0,3.27-1,3.27-3.09a2.82,2.82,0,0,0-3.12-3.09Z"/><path class="cls-1" d="M327.46,66.86v21.6H322.6V66.86Z"/><path class="cls-1" d="M336.75,84.77h8.49v3.69H331.89V66.86h13v3.39h-8.13v5.19h7.8v3.51h-7.8Z"/><path class="cls-1" d="M348.5,66.86h4.89V82a3.08,3.08,0,1,0,6.15,0V66.86h4.92v14.4c0,4.8-2.79,7.68-8,7.68-5.7,0-8-2.73-8-7.68Z"/><path class="cls-1" d="M375.8,79.88h-2.19v8.58h-4.86V66.86H378c3.57,0,6.42,1.71,6.42,5.52a5.17,5.17,0,0,1-4.47,5.37c3.27.3,4.17,2.7,4.29,5.34.09,2.07.27,4.65.75,5.37h-5.16c-.48-.45-.6-3.18-.6-5.37S377.93,79.88,375.8,79.88Zm-2.19-9.69v6.18h2.49c2,0,3.27-1,3.27-3.09a2.82,2.82,0,0,0-3.12-3.09Z"/><path class="cls-1" d="M393.32,84.77h8.49v3.69H388.46V66.86h13v3.39h-8.13v5.19h7.8v3.51h-7.8Z"/><path class="cls-1" d="M254.23,119.46V97.86h7.62c5.31,0,8.82,3.12,8.85,10.71,0,8.28-4.56,10.89-8.37,10.89Zm4.86-18.27v14.76h2.31c3.66,0,4.29-3.3,4.29-7.47s-1.14-7.29-4.11-7.29Z"/><path class="cls-1" d="M279.23,97.86l-2.64,6.69h-3.27l1-6.69Z"/><path class="cls-1" d="M283.54,119.46h-5l6.9-21.6h6.6l5.94,21.6H293l-1-4.17h-7.26Zm7.56-7.83-2.16-9.39-.18-.9h-.06l-.21.9-2.79,9.39Z"/><path class="cls-1" d="M308,110.88h-2.19v8.58H301V97.86h9.24c3.57,0,6.42,1.71,6.42,5.52a5.17,5.17,0,0,1-4.47,5.37c3.27.3,4.17,2.7,4.29,5.34.09,2.07.27,4.65.75,5.37H312c-.48-.45-.6-3.18-.6-5.37S310.13,110.88,308,110.88Zm-2.19-9.69v6.18h2.49c2,0,3.27-1,3.27-3.09a2.82,2.82,0,0,0-3.12-3.09Z"/><path class="cls-1" d="M324.87,101.43h-5.76V97.86h16.2v3.57h-5.58v18h-4.86Z"/><path class="cls-1" d="M349.5,107.85c2.31,1,3.9,2.61,3.87,5.58,0,4-3.09,6.48-7.95,6.48-5.55,0-8.37-2.61-8.07-6.6l.06-.75,5,0,0,.57a2.67,2.67,0,0,0,2.94,3.06c1.68,0,2.79-1,2.79-2.37s-1-2.13-2.43-2.82l-4.14-1.89c-2.43-1.17-4.11-2.43-4.08-5.58,0-3.45,2.91-6.09,7.62-6.09s7.77,2.13,7.62,5.91l0,.69-5,0,0-.42a2.38,2.38,0,0,0-2.67-2.64c-1.5,0-2.58.81-2.61,2.16s1.17,2,2.52,2.64Z"/><path class="cls-1" d="M365.61,119.46V97.86h7.62c5.31,0,8.82,3.12,8.85,10.71,0,8.28-4.56,10.89-8.37,10.89Zm4.86-18.27v14.76h2.31c3.66,0,4.29-3.3,4.29-7.47s-1.14-7.29-4.11-7.29Z"/><path class="cls-1" d="M390.6,115.77h8.49v3.69H385.74V97.86h13v3.39H390.6v5.19h7.8v3.51h-7.8Z"/><path class="cls-1" d="M416.43,111.63v7.83h-4.89V97.86h8.94a6.42,6.42,0,0,1,6.75,6.63c0,4.68-2.61,7.14-8.67,7.14Zm0-10.44V108h2.31c2.13,0,3.21-1.14,3.24-3.27s-1-3.51-3.18-3.51Z"/><path class="cls-1" d="M432.46,119.46h-5l6.9-21.6H441l5.94,21.6h-5.07l-1-4.17h-7.26Zm7.56-7.83-2.16-9.39-.18-.9h-.06l-.21.9-2.79,9.39Z"/><path class="cls-1" d="M456.92,110.88h-2.19v8.58h-4.86V97.86h9.24c3.57,0,6.42,1.71,6.42,5.52a5.17,5.17,0,0,1-4.47,5.37c3.27.3,4.17,2.7,4.29,5.34.09,2.07.27,4.65.75,5.37h-5.16c-.48-.45-.6-3.18-.6-5.37S459.05,110.88,456.92,110.88Zm-2.19-9.69v6.18h2.49c2,0,3.27-1,3.27-3.09a2.82,2.82,0,0,0-3.12-3.09Z"/><path class="cls-1" d="M474.53,97.86v21.6h-4.86V97.86Z"/><path class="cls-1" d="M490.22,107.85c2.31,1,3.9,2.61,3.87,5.58,0,4-3.09,6.48-7.95,6.48-5.55,0-8.37-2.61-8.07-6.6l.06-.75,5,0,0,.57a2.67,2.67,0,0,0,2.94,3.06c1.68,0,2.79-1,2.79-2.37s-1-2.13-2.43-2.82l-4.14-1.89c-2.43-1.17-4.11-2.43-4.08-5.58,0-3.45,2.91-6.09,7.62-6.09s7.77,2.13,7.62,5.91l0,.69-5,0,0-.42a2.38,2.38,0,0,0-2.67-2.64c-1.5,0-2.58.81-2.61,2.16s1.17,2,2.52,2.64Z"/><path class="cls-1" d="M295.93,143.71c-.45,5.37-3.57,7.23-8.07,7.23-5.88,0-8.76-3.21-8.76-11.43,0-7.83,3.45-11.13,8.91-11.13,5.1,0,7.53,2.7,7.89,7.17h-5.28c.06-2.7-1.35-3.48-2.73-3.48-1.92,0-3.51,1.14-3.51,7.44,0,5.79,1,7.71,3.48,7.71,1.65,0,2.88-1.17,2.82-3.51Z"/><path class="cls-1" d="M304.16,146.77h8.49v3.69H299.31v-21.6h13v3.39h-8.13v5.19H312v3.51h-7.8Z"/><path class="cls-1" d="M323.33,141.88h-2.19v8.58h-4.86v-21.6h9.24c3.57,0,6.42,1.71,6.42,5.52a5.17,5.17,0,0,1-4.47,5.37c3.27.3,4.17,2.7,4.29,5.34.09,2.07.27,4.65.75,5.37h-5.16c-.48-.45-.6-3.18-.6-5.37S325.46,141.88,323.33,141.88Zm-2.19-9.69v6.18h2.49c2,0,3.27-1,3.27-3.09a2.82,2.82,0,0,0-3.12-3.09Z"/><path class="cls-1" d="M343.46,142.12v-3.63h8c-.12,6.12-.09,9,.24,11.07a13.75,13.75,0,0,0-1.5.39,20.08,20.08,0,0,1-5.85,1c-7.14.09-9.27-4.8-9.21-11.37.06-8.7,3.84-11.19,8.91-11.19,5.73,0,7.65,3.36,7.41,6.84h-4.89c.09-2-.78-3.36-2.58-3.33-2,0-3.54,1.11-3.84,6.36-.39,7.08,1.62,9.15,4.65,9a5.82,5.82,0,0,0,2.13-.42,25.77,25.77,0,0,1-.15-4.74Z"/><path class="cls-1" d="M371,128.86,364.59,143v7.5h-4.86V143l-6.39-14.1h5.25l3.27,9.36.3,1.2h.06l.3-1.2,3.24-9.36Z"/><path class="cls-1" d="M109.48,40.88V145.36H5V40.88H109.48m5-5H0V150.36H114.48V35.88Z"/></svg>