<svg id="Calque_1" data-name="Calque 1" xmlns="http://www.w3.org/2000/svg" viewBox="0 0 492.68 489.73"><defs><style>.cls-1{fill:#fff;}</style></defs><title>Artboard 3</title><path class="cls-1" d="M491.7,240.5A7.31,7.31,0,0,0,484,237L455.83,132h0a7.31,7.31,0,1,0-8.41-11.89L372.09,43.33a7.31,7.31,0,1,0-12.4-7.15L252.29,8.64a7.31,7.31,0,1,0-14.36,0L133.66,36a7.31,7.31,0,1,0-12.47,7.1L43,120.24a7.31,7.31,0,1,0-7.13,12.41L8.64,238.74a7.31,7.31,0,1,0,0,14.37L35.57,356.8a7.31,7.31,0,1,0,7.14,12.43L120.06,446a7.31,7.31,0,1,0,12.44,7.15L239,481.75a7.31,7.31,0,1,0,14.44-.77l104.92-28.53a7.31,7.31,0,1,0,12.42-7.19l76.36-76.1a7.31,7.31,0,1,0,7.26-12.39L483.89,251.3a7.3,7.3,0,0,0,7.81-10.81ZM410,374.35l5.93-10.17h28.72a7.27,7.27,0,0,0,.12.89ZM252.26,478.23a7.26,7.26,0,0,0-.65-.8l26.74-26.61,21.54-.06ZM132.5,448.41a7.3,7.3,0,0,0-.35-.83l25.51-14.65,10.44,6ZM82.36,114.48,76.19,125.2H45.42a7.27,7.27,0,0,0-.11-.89ZM239,11.37a7.36,7.36,0,0,0,.57.76L213.92,37.9H192.67ZM359.7,40.83a7.32,7.32,0,0,0,.36.85L333.31,57.14l-11.1-6.34ZM228.23,451l9.05,0,6.61,24.56a7.41,7.41,0,0,0-1.09.48Zm-96.58-4.26a7.32,7.32,0,0,0-.55-.73l18-17.94,7.53,4.31ZM262.29,37.92h-8.36l-6.43-23.7a7.39,7.39,0,0,0,.83-.35Zm98.27,4.63a7.32,7.32,0,0,0,.53.7L342,62.12l-7.71-4.41Zm92,209.85v-7.63l25.51-.09a7.25,7.25,0,0,0,.11.87ZM334.52,432l7.44-4.29,17.77,17.62a7.32,7.32,0,0,0-.56.73ZM44.8,361.37a7.3,7.3,0,0,0-.35-.83l21.36-12.28,3.75,6.49ZM37.51,238.28v7l-22.91.08a7.27,7.27,0,0,0-.12-.89ZM157.74,56.72l-7.59,4.34-17.9-17.91a7.26,7.26,0,0,0,.57-.74Zm84.14-42.84a7.35,7.35,0,0,0,.85.35l-6.38,23.69H227.9ZM365.83,127l-.07,21.47-30.69,8.3,8.3-30.63H365Zm79.45,1a7.35,7.35,0,0,0,.34.81l-19.71,11.33-3.45-6Zm32.79,115.65-25.5.09V236l25.62,6.78A7.35,7.35,0,0,0,478.07,243.68Zm-26.5.1-30.53.11v0l4.06-15.16,26.49,7Zm-31.05-1.87-4.07-15.49,7.67,2Zm-.52,1.95v0L384.3,244l13.1-22.65,17.94,4.75ZM360.43,444.57l-17.57-17.43,6.41-3.69L361.18,444A7.3,7.3,0,0,0,360.43,444.57Zm-18.31-18.16-19.65-19.48,10.93-10.87,15.37,26.52Zm-20.36-20.19-5.8-5.75,15.82-4.22Zm-6.62-6.56-13.26-13.15,12.91-22.32h.14L332.76,395Zm-68.39,75.46-.06-24.2,7.61,0-6.6,24.36A7.33,7.33,0,0,0,246.76,475.12Zm-.06-25.21-.08-30.62,15.16,4-7.21,26.6ZM248,418.62l16.24-4.33-2.18,8Zm-1.37-.67-.09-35,22.69,12.94-4.69,17.31ZM44,359.67a7.33,7.33,0,0,0-.53-.71l18.19-18,3.71,6.43Zm18.39-19.43,19.73-19.52L93,331.51,66.19,346.9ZM82.79,320l5.61-5.55,4.07,15.14Zm6.43-6.36,13.11-13,22.22,12.67L93.87,331ZM14.61,246.4l22.9-.08v7.09l-23-6.09A7.33,7.33,0,0,0,14.61,246.4Zm23.9-.09,31-.11-4,14.61-27-7.14Zm31.76.76,4.35,16.16-8.17-2.16Zm.8-.88,34.67-.13-12.8,22-17.2-4.55ZM131.54,43.86l17.71,17.71-6.37,3.64L130.82,44.4A7.36,7.36,0,0,0,131.54,43.86ZM150,62.31l19.84,19.85L159,93,143.38,66.08Zm20.55,20.55,5.67,5.67L160.8,92.62ZM177,89.35l12.53,12.54-12.73,21.9L159.54,94Zm25.7-6.82,18.71,10.74-8.3,30.8L190.8,101.72l11-19Zm41.91-67.91.06,23.3h-7.3l6.31-23.43A7.37,7.37,0,0,0,244.62,14.61Zm.06,24.3.08,30.58-14.82-4,7.17-26.6Zm-.3,31.51-17,4.51,2.28-8.45Zm.38.93.08,34.2L222.59,92.78,227.1,76ZM365.44,244.1l-31.66.12,30.58-30.44,1.17,2Zm1.09-26.59L381.93,244l-15.49.06ZM314.22,363.19H279.11v0L305.55,348l8.73,15.08ZM125.51,277.74h.05l-.1,35L103.06,300Zm-23.35,21.7L82.4,288.17l11-18.93,31,8.21ZM156.8,160.2l1.92-1.11L170,201l-27.65-15.9Zm-15.32,24.37L128,176.82l27-15.62ZM244.9,126.18l.07,29.74-29.55-29.56.3-.17Zm-27.45-1,27.41-15.82,0,15.82Zm113.42,30.89.93,1.6-40.72,11,15.52-26.54ZM307.1,141.28l7.62-13,15.15,26.1Zm56.74,71.6-31,30.9L316,227l6.87-25.36,40.67,10.77ZM333.16,160l-10.75,39.64-1,.57-25.26-6.69-6.22-22.9.42-.71,42-11.35Zm.16-1.71.32-.09-.12.44Zm-152,87.48h.7l8.05,29.9h0l-13.26-13.15ZM176,261.72l-16-15.86,20.3-.08ZM245,181v.11l-30.11,8.14,12.94-12.8Zm-16.35-5.36L245,159.54,245,180Zm48.47,13.87.36.36-31.3,53.54,0,0L246,181.9l1.14-.31Zm-28-8.46,15.42-4.17,11.22,11.23Zm60.5,65.82-7.42,27.37L300.46,276l-52.95-30.45,61.67-.23Zm-7.94,29.31-.11.41-.19-.11Zm-57.11-30.65H245l-31.3,53.53-22.17-22-.25-.93ZM191,275.17l-7.91-29.39,59.44-.22Zm-.38,2.45,4.74,17.59-25.48-6.75,20.06-11.53ZM192,279l21.07,20.89-16.63-4.4Zm20.63,21.81-10.11,17.29-5.79-21.5Zm1,.27.86.23,11.68,11.58-23,6.16Zm2.79.74,25.69,6.8-14.83,4Zm27.63,7.32,1.25.33.05,21-17.25-17.11Zm0-1L215,300.42l-.62-.61,30.77-52.64.15,60.61Zm2.09-62.18.34.2,30.69,53-.21.21-30.68,8.2Zm2.07,1.19,51.46,29.59L278,298.38Zm-1.5-2.59,0,0,.2-.34,53.56-30.78,8.39,30.92Zm1.2-2.11,30.29-51.81,21.84,21.85Zm51.84-31.66L279.08,190l16.26,4.31Zm-3.34-16.12,23.73,6.28-19,10.95ZM279.18,189l10.05-17.2,5.81,21.4Zm-34,52.77-29.89-51.59,29.74-8ZM214.3,188.49l-10.68-18.44,23.12,6.12Zm0,2,30.89,53.32V244l-.15.09L190.94,213l22.55-22.31ZM190.2,213.73l53.58,30.81-61,.23-.6-2.22L189.91,214Zm-8.42,31h-.16l.08-.31Zm7.41,31.42-19,10.91,6.33-23.47Zm6.46,20.12,6.19,23-.05.09L158.38,331l11.21-41.61ZM227,313.71l17.8,17.65-30.52,30.38L203.1,320.1Zm19.32-4,16,4.22L246.4,329.8Zm0-1v-.16l29.25-7.82-12.48,12.42Zm31.19-8.5.29-.08,11.57,20-25.15-6.66Zm1.29-.34,17.7-4.73-6.52,24Zm.14-1.07,21.66-21.57.66.38L296.83,294Zm23.22-20.67L319.35,288l-21.41,5.72Zm.27-1,.63-2.34,11.1-11,6.47,23.86Zm1.16-4.27,6.52-24,3.75,13.82Zm7-26,.43-1.59,20.28-.08-16.66,16.59Zm.7-2.59,4.39-16.18,16.1,16.11Zm-1,0h-.37l-8.19-30.17,13.17,13.17Zm-8.58-31.61,19.84-11.4.38.1-6.72,24.8Zm-12.85-42.21-10.69,18.28-.51-.13-12-12,23.18-6.27Zm-24,5.3-18-18,30.44-30.12,11.33,41.74Zm-1.11.3-16.54,4.47-1.14-.3-.05-21.7.11-.11ZM245,158.13l-17.41,17.23-24.66-6.53-.56-1,10.84-40.23,1.33-.77L245,157.33Zm-42.73,11.56,11.31,19.52-.59.59-17.83,4.82,6.75-25Zm9.28,21.54-21.1,20.88,4.41-16.37Zm-22.14,20.88L171.77,202l22-5.94Zm-.27,1-.11.39-11.54,11.42L171.58,203Zm-.62,2.31-6.79,25.2L177.78,226Zm-7.31,27.13-.6,2.23-21.57.08-.13-.13L177,226.84Zm-22.58,3.31,17.12,17-6.73,25-.48.27-41.6-11-.26-.45,31.09-30.76Zm-31,32.44,39.66,10.5-25.12,14.44Zm13.67,25.44-14.82,8.51.09-33.78Zm27.33-14.55-11,40.66-15-25.74Zm32.47,31.46L185.64,347,159,331.88Zm1.14,0,11.27,41.88-.24.24-26.74-15.25Zm12.39,42.18,30.8-30.66.08,31H214.7Zm31.8-29.93,30.54,30.28H246.48Zm28.92,31.28-28.81,16.54,0-16.54Zm2.56-1.47L246.4,331.51v-.31l17-16.94,26.05,6.9-11.21,41.35Zm12.46-41,14.7,25.38-25.56,14.68Zm1.12-.06,39.62,10.49-25.17,14.45Zm40.85,9.78-41.56-11,0-.07,6.93-25.56,22.94-6.13.44.25,11.5,42.39ZM315,262.92l17.79-17.71h0l30.91,30.92-42.11,11.25Zm8.18-62.24.1-.37,25-14.34,14.64,25.23Zm.47-1.74,10.22-37.71,13.86,23.87Zm10.59-39.07.44-1.62,29.91,17.16-16,9.19Zm-1.43-2.47-.2-.34.46.27Zm-43.1,11.65-.17,0-11.48-42.29.65-.64h.07l27,15.47Zm-12.77-42.54L246.09,157l-.11-.11-.08-30.74h30.95Zm-63.22-.33-.15.09,0-.09Zm-1.38.8L187.1,141.55l-8.9-15.36h34.35Zm-.37,1.37-10.32,38.3-14-24.24ZM201.28,168l-.1.36L161,157.75l25.69-14.83Zm-.36,1.33L194,194.93l-22.95,6.21-11.46-42.56.2-.12Zm-42.47-11.25-.63.37.27-.46Zm18.21,67.64L158.17,244l-30.41-30.15,42.61-11.52Zm-19.2,19-.14.14-30.66.11.09-30.71Zm-1.16,1.14-29.73,29.41.08-29.3Zm-30.73,28.92L108.83,246l16.83-.06Zm16.21,29.81L157,330.72l-30.45-17.36Zm43.35,43.31-8.49,14.53-16.9-29Zm.87.5,26,14.8H177.35Zm59.48,15.79,0,17-29.8-17Zm31.85,0h.47l-8.31,30.67-22.86-13Zm1.31.69,22,21.79-11.28,19.51-19-10.81Zm.72-.69h34.27l-12.49,21.6Zm27-16.7L331.69,333l-16.82,29.09Zm26.85-17.24-11-40.59,25.88,14.88ZM349,305l14.65,8.43-29.24,16.79Zm-27-16.71L364,277.1l-15.38,26.58Zm42.83-12.57-30.54-30.55,31.2-.12-.1,29.7ZM365.1,213l.18-.18.27.07v.87Zm1.45-1.45,22.34-22.24,19.42,11.15-11.4,19.7-30.37-8Zm0-1.42.11-33.57L388,188.85Zm-1,1-.57.57-.75-.2-15.14-26.09L365.58,176l.08,0Zm0-36.35-29.92-17.17,30.09-8.14-.08,25.26Zm-34-19.5-16.3-28.08.64-1.09h26.4L334,156.74Zm-16.88-29.08-.05-.09h.11Zm-.58,1-7.91,13.53-25.46-14.61h32.74Zm-37.57-2.08H245.9l0-16.4,1.3-.75,29.33,16.83Zm-30.72-17.54v-.35l.3.17Zm-1,.58-29.41,17h-1.2l-.31-.31,8.38-31.1,22.53,12.93ZM221.69,92.26,204.08,82.16,226,76.34ZM190.06,101,178.13,89.05l22.33-5.93Zm.21,1.63,22.55,22.55h-35.2l-.23-.4ZM177,126.19,186.23,142l-26.56,15.34-.41-.11-.24-.9,17.55-30.19ZM158.66,155l-7.76-28.82h24.52Zm-.71,1.22-.35.6-30.67-8.12.06-22.16.35-.35h22.53Zm-.87,1.5-1,1.73L127,176.24l-.16-.09.07-26.41ZM127,177.4l14,8-14.22,24.46.09-32.4Zm14.83,8.53,27.33,15.72-42.24,11.42-.19-.19v-1Zm-16.1,28.5L125.66,245l-17.41.06-.39-.67,17.33-29.81Zm-18.07,31.63,17.72,30.4-.17.17-31.29-8.29,13-22.29ZM92.4,269,82,286.86l-6-22.23Zm9,31.2L88.91,312.55l-6.2-23Zm55,31.37-30,8,.07-25.12Zm.53.89-8.3,30.79H126.38l-.06-.06.06-22.56Zm1,0h0l17.93,30.77H149.7Zm53.84,31.77-21.62,21.52-12.53-21.51Zm1.42,0h.46l.27.15,8.18,30.38-20,11.48-11.42-19.6Zm2,.85,29.42,16.78-21.57,12.39Zm54.92,31.32L288.4,406.8l-22.75,6.07Zm31.25-9L314,400l-23.55,6.29Zm14.08-24.34,17.49-30.24,8.24,30.35H315.51ZM334,333l31.12,8.24-.07,22,0,0H342.2Zm-.3-1.11h0l31-17.78.55.32-.09,25.79Zm31-18.94-15.16-8.72L365,277.39l.34.34-.12,34.85Zm1.67-34.17,21.09,21.1L366.22,312Zm0-1.41v-.84l29.8-8,11.45,19.73-19.27,11.07Zm0-1.88v-.37l16.77-29,12.51,21.55Zm0-2.38.09-28,16.07-.06,0,0Zm16.74-29-16.55-28.51V213.2l29.85,7.91L383.14,244Zm14.83-23.56,11-19,6.17,23.5Zm-8.29-31.84,12.59-12.54,6.1,23.26Zm-.9-.52-22.05-12.66v-.09l30.45-17.5.42.41,4.38,16.7Zm10.21-28.46,9.24,9.1-5.43,5.4Zm-.5-1.9-.15-.56,27.25-15.66,3.64,6.31L408.88,168Zm28-16.72,19.71-11.33a7.32,7.32,0,0,0,.55.73l-16.75,16.67Zm-1.37-.37-27,15.53-3.77-14.37,27.21-7.36Zm-28,15.72-12.19-12,8.44-2.28Zm-.66.75-29.71,17.07.08-25,17-4.59Zm-29.62-8.91.07-20.22,16.08,15.85Zm-23.12-23.06,4.28-15.79,16,15.79Zm-1,0H316.52l17.34-29.66,13.24,13.06Zm-8.22-30.54,0,0,15.37,4.12-2.38,8.76Zm.55-.94L350,67.84l7,4-7,25.87ZM350.54,67l12.84-22a7.33,7.33,0,0,0,.86.36l-6.91,25.48Zm12-22.46-12.84,22-6.75-3.85L361.79,44A7.27,7.27,0,0,0,362.51,44.52ZM349.16,67.35,333.93,93.4l-1.07-.29-10.4-10.25,19.72-19.51ZM330.91,92.59l-14.37-3.85,5.22-5.17ZM332.35,94l.78.77-17.76,30.38h-1.28l-12.54-21.6,14.16-14Zm-19.42,31.15H279.72l21.1-20.88Zm-34.37-.26-1.22-.7-7.88-29L289,83.89,300.3,103.4Zm-2.45-1.4-28-16,20.41-11.78Zm-29-16.62-1.3-.75-.09-35,.56-.15,16.75,4.49,5.22,19.23Zm1.11-36.45,12.55-3.33,2,7.23Zm-1.94-.52-.56-.15-.08-30.84h7.48l7.39,27.21Zm-.64-32-.06-23.31a7.27,7.27,0,0,0,.91-.12l6.36,23.44Zm-9.61,1L229,65.25l-14.68-3.94,13-22.41Zm-7.36,27.31-2.43,9-23.43,6.22-.2-.12,11.12-19.13ZM201.17,81.9l-23.86,6.34-6.08-6.08L182.45,70.9,201.28,81.7Zm-30.64-.45L150.88,61.79l7.87-4.5,22.81,13.09ZM129.11,45.26a7.3,7.3,0,0,0,.84-.36L142,65.71l-6.41,3.66Zm13.4,21.32L158,93.35l-14.9,4-7.25-26.94Zm15,28-11.89,11.93-2.2-8.19Zm1.3.12,17.46,30.13-.23.4H150.63l-4.74-17.61Zm-9.18,30.54H128.34l16.74-16.8Zm-23.67,23.25-16.43-4.35L126,127.55Zm0,1-.07,26.1L95.51,158.13l13.17-13.22Zm-31.21,8,4.15-15.2,8.7,2.3Zm-.93-.38-26.16-15,4-7,26.25,7Zm-27-15.54L44.7,128.91a7.32,7.32,0,0,0,.34-.85l25.6,6.78ZM44.2,129.78l22.06,12.69-3.82,6.64L43.66,130.49A7.26,7.26,0,0,0,44.2,129.78ZM67.13,143l26.38,15.17-.22.81-10.4,10.44L63.17,149.84ZM92.75,160.9l-3.93,14.38-5.23-5.19Zm1.43-1.43.6-.6,31.07,17.86v.18l-22.35,12.91L89.64,176.08Zm31.66,18.6-.09,33.55-.1.17-21.42-21.24Zm-.71,34.61-.6,1-29.84,8.07L83.47,202.53l19.86-11.47Zm-1.32,2.27-16.54,28.45L95.21,222.68ZM106.7,244.38l-.39.67-35.52.13v0L75.46,228l18.75-5.07Zm-36.43-1.14L66.8,230.36l7.54-2Zm-.52,1.91v0l-31.23.12V238l27.32-7.39Zm-55.52,3.12,23.27,6.16v8.12L13.9,249.1A7.31,7.31,0,0,0,14.23,248.27ZM38.5,254.7l26.71,7.07-3.92,14.36-22.8-13ZM66.18,262l8.73,2.31,6.21,23.1-18.94-10.8Zm21.92,51.33-6,6L70.79,308.13l10.87-18.69ZM81.36,320,61.83,339.35l-4.57-7.92,13-22.4ZM61.09,340.07,42.72,358.25a7.31,7.31,0,0,0-.74-.57l14.69-25.27Zm5.6,7.69L93.24,332.5l4,14.86-26.67,7.13ZM94.4,332.93l12.07,12-8.26,2.21Zm.2-1.21L125.46,314l-.07,25.85-17.81,4.76Zm30.79,9.15-.06,21.31-16.92-16.77Zm23,23.35L144,380.65l-16.57-16.42Zm1,0h26.18l-17.69,30.26-13.13-13Zm7.1,30.29-14.25-3.76,2.2-8.18Zm.66,1.21-15.68,26.82-6.76-3.87L142,391.71ZM141,423.39l-12.18,20.83a7.37,7.37,0,0,0-.87-.36l6.53-24.21Zm-11.32,21.34,12.19-20.85,6.35,3.64L130.4,445.28A7.22,7.22,0,0,0,129.69,444.73ZM142.38,423l15.75-26.93L169,406.85l-20,19.94Zm17.5-26.6,15.48,4.08-5.67,5.64Zm-1.17-1.34,17.92-30.66,12.84,22-13.29,13.23ZM190,387.35l11,18.88L177.31,400Zm32.42,8.39,4.68,17.38-23.94-6.31Zm.9-.51,22.21-12.75.09,35.53-17.4-4.59Zm20.77,23.41-13.5,3.6-2.08-7.71Zm1.53.63.08,30.66-7.64,0-7.2-26.74Zm.08,31.66.06,24.21a7.27,7.27,0,0,0-.89.12l-6.54-24.31Zm3,24.59,6.67-24.62,8.17,0L249.15,475.7Zm6.95-25.62,7.14-26.34,14.37,3.79-13,22.53Zm7.4-27.3,2.33-8.59,23.05-6.15-10.76,18.6Zm51.83-21.81,6.21,6.15L310,418l-19-10.82Zm6.92,6.86,19.46,19.3-7.71,4.45-22.64-12.91Zm41.11,35.52a7.3,7.3,0,0,0-.83.35L350.13,423l6.27-3.62Zm-13.24-21.07-15.35-26.49,14.62-3.9,7.23,26.65Zm-14.49-27.76L346.54,383l2.1,7.74Zm-1.53.11-17.52-30.24h25.35l4.8,17.69Zm8.86-30.25H364l-17,16.88Zm23.65-22.73,16.38,4.34-16.45,16.36Zm0-1,.08-25.48,30,17.24L383.32,345Zm29.74-6.52-3.6,13.44-7.83-2.07Zm1.34-1.14,26.88,15.45-3.81,6.54-27-7.16Zm27.74,16,20.42,11.74a7.32,7.32,0,0,0-.34.85L421.27,355Zm20.93,10.88-20.42-11.74,3.68-6.3,17.31,17.31A7.26,7.26,0,0,0,445.88,359.6Zm-21.29-12.24L397.82,332l10.89-10.84,19.69,19.7Zm-26.79-16.78,4.31-16.07,5.91,5.91Zm-1.22.67-30.37-17.46v-.63l21.94-12.6,13.13,13.14ZM389.05,300l18.78-10.79-6.25,23.32Zm8.09-31.8,17.58-4.7-6.41,23.94Zm-.52-.9-12.93-22.28,0,0,36-.13L415,262.43Zm23.89-21.54L424.22,260l-8.09,2.16Zm.79-.92,30.27-.11v7.89l-26.37,7Zm57.15-3.09L452.58,235v-9l26.21,15A7.32,7.32,0,0,0,478.45,241.8Zm-26.87-7.12-26.23-6.95,4.05-15.13,22.19,12.73Zm-27.2-7.2-8.22-2.18-6.27-23.89,18.61,10.68ZM403,175.28l5.85-5.82L420,180.37l-10.72,18.54Zm6.56-6.53,20.11-20,4.27,7.4-13.5,23.34ZM430.44,148l16.94-16.86a7.28,7.28,0,0,0,.73.56l-13.55,23.44ZM445,127.06l-23.07,6.24-4.13-7.15H444.9A7.25,7.25,0,0,0,445,127.06Zm-24.07,6.51L394,140.86l-3.86-14.7h26.52ZM393,141.12l-9,2.44-17.2-17v-.45h22.28Zm-27.67-16-17.14-16.9,2.52-9.31L365.91,103l-.07,22.14ZM351,98,358,72.37l8,4.6-.08,25Zm7.21-26.61,7-25.73a7.37,7.37,0,0,0,.9.13l-.1,30Zm-16.94-8.53L321.75,82.17l-11-10.85,22.56-13ZM321,82.87l-5.63,5.57L292,82.15l17.87-10.32Zm-6.45,6.38L301,102.67,289.84,83.39l.91-.53Zm-25.26-6.73,0-.05.08,0Zm-.87.5L269.19,94.15l-5-18.42,23.75,6.37Zm-24.58-8.4-2.11-7.78,15-4,10.46,18Zm-2.37-8.75-7.32-27h8.67l13.37,23ZM241,13.36,226.74,37.9H215.33l25-25.07A7.29,7.29,0,0,0,241,13.36ZM226.16,38.9,213.29,61,196.7,56.6l17.64-17.7Zm-13.4,23-11,18.9-18.6-10.68,12.71-12.75Zm-30.49,7.71L159.75,56.72l10.71-6.12,24.32,6.52ZM158.74,56.14,133.31,41.55a7.35,7.35,0,0,0,.33-.83l35.44,9.51Zm-30.6-10.62,6.56,24.37-7.57,4.33.08-28.58A7.26,7.26,0,0,0,128.15,45.52ZM135,70.89l7.18,26.68-15.1,4,.07-26.2Zm7.44,27.65,2.36,8.75L127,125.13l.06-22.51Zm-34,45.26-9.26-2.45,4.14-15.15h22.66Zm-10.22-2.71-26-6.89,4.6-8h25.46Zm-27-7.15L45.3,127.09a7.32,7.32,0,0,0,.12-.88H75.61ZM43,131.2l19,18.8-4.5,7.82L42.23,131.76A7.33,7.33,0,0,0,43,131.2Zm19.7,19.53,19.53,19.36L71.07,181.24,58,158.82ZM82.89,170.8l5.63,5.59L82.05,200.1l-10.46-18Zm6.45,6.4,13.26,13.14L83,201.67l-.21-.36ZM82.6,203l11.08,19L75.77,226.9l6.46-23.65Zm-8,24.17-8.11,2.19-4-14.79L81,204Zm-9.07,2.45L38.52,237v-8.49l23.14-13.36Zm-28.06,7.59-23.29,6.3a7.33,7.33,0,0,0-.35-.82l23.65-13.65ZM13.4,250l24.09,13.74v11.41L12.84,250.7A7.27,7.27,0,0,0,13.4,250Zm25.09,14.31L61,277.13,56.44,293.9l-18-17.8Zm23.43,13.36L81,288.54l-11,18.87L57.25,294.71Zm7.63,30.66L56.68,330.42l-6.23-10.79,6.5-23.82ZM56.1,331.42l-15,25.76a7.35,7.35,0,0,0-.83-.34L50.08,321Zm-11,30.92,25-6.69,4.38,7.58H45.18A7.27,7.27,0,0,0,45.06,362.34Zm26-7,26.42-7.06,4,14.9H75.62Zm27.38-7.32,8.82-2.36L125,363.22H102.55Zm45.2,33.69-2.35,8.74-15-4,.06-22Zm-2.61,9.7-7.19,26.68-7.67-4.4.07-26.19Zm-7.46,27.68L127,443.61a7.28,7.28,0,0,0-.89-.13l.08-28.58Zm16.27,8.17,19.84-19.75,11.05,11-23.1,13.26Zm20.55-20.46,6.08-6.05,24.06,6.34L181.65,418Zm57,7.37,2.22,8.26-15.57,4.15-11-18.83Zm2.48,9.23L237,449.94l-9.37,0-13.07-22.43ZM250,476.15l14.63-25.29,12.27,0-26.05,25.92A7.35,7.35,0,0,0,250,476.15Zm15.21-26.29,12.87-22.26,17.52,4.62-17.69,17.6Zm13.39-23.16,11.08-19.15,19.52,11.13L296.46,431.4Zm31.5-7.5L332.51,432l-10.65,6.14-24.28-6.4Zm23.38,13.33,25.16,14.35a7.33,7.33,0,0,0-.34.84l-35.11-9.26Zm30.32,10.36-6.53-24.08,7.58-4.37-.09,28.32A7.25,7.25,0,0,0,363.84,442.89ZM357,417.82l-7.16-26.39,15.1-4-.09,25.89Zm-7.42-27.35-2.25-8.29L365,364.57,365,386.36Zm34-44.37,8.39,2.22-4,14.87H366.44Zm9.35,2.48,26.77,7.09-4.38,7.52h-26.3Zm27.78,7.36,24,6.36a7.35,7.35,0,0,0-.12.88H416.52Zm26.39,2.23-17.49-17.5,4.19-7.19,14,24.14A7.34,7.34,0,0,0,447.15,358.16Zm-18.22-18.23-19.5-19.51L420.1,309.8l13.17,22.69Zm-20.21-20.22-6.32-6.32,6.25-23.33,10.93,18.83Zm7.12-56.46,8.64-2.31,4,15.3-19.07,11Zm9.61-2.57,26.12-7V263l-22.16,12.73Zm27.12-7.25,25.89-6.92a7.35,7.35,0,0,0,.35.83l-26.25,15.07Zm26.74-13.35-26.71-15.33V212.55l27.23,26.84A7.28,7.28,0,0,0,479.3,240.09Zm-27.71-15.9-21.92-12.58,4.59-17.14,17.34,17.09ZM428.77,211.1l-19.1-11,11-19,12.75,12.57Zm-7.57-30.89,13.34-23.07,5.93,10.27-6.74,25.15Zm13.92-24.07L449,132.21a7.31,7.31,0,0,0,.85.35l-9,33.49Zm9.76-31H417.24l-5.71-9.89,33.49,9A7.31,7.31,0,0,0,444.89,125.14Zm-28.81,0h-26.2l-4.43-16.89,24.71,6.63Zm-27.24,0h-22l.07-21.87L384.34,108Zm-21.94-22.9L367,77.54l11,6.29,6,23ZM367,76.39l.1-30.62a7.29,7.29,0,0,0,.89-.11l9.66,36.82ZM332.3,57.71,310,70.59l-13.23-13,24.05-6.39Zm-23.2,13.39-18.5,10.68-2-.54L277.77,62.59l17.88-4.75Zm-31.86-9.41L264,38.92h12.43L294.83,57Zm-13.8-23.77L249.2,13.37a7.34,7.34,0,0,0,.75-.57l25.5,25.14Zm-50.52,1L195.58,56.3l-23.9-6.41,19.24-11ZM170.32,49.52,133.9,39.75a7.32,7.32,0,0,0,.13-.9l54.89,0Zm-44.1-3.88-.08,29.15-10.47,6,9.63-35.27A7.33,7.33,0,0,0,126.21,45.64Zm-.08,30.31-.07,25.9-17.4,4.62,6.64-24.32Zm-.08,26.93L126,125.2H103.54l4.81-17.62ZM102.5,125.2H77.34l6.38-11.08,23.51-6.24Zm-62,7.42a7.33,7.33,0,0,0,.86-.37l15.48,26.57-6.33,11Zm16.92,27.2L70.34,182l-13,13.08-6.42-23.86Zm13.43,23,10.82,18.58-.31,1.14-19.08,11L57.6,196.17ZM61.4,214.12l-22.87,13.2v-12L56.79,197ZM37.53,227.9,13.37,241.85a7.35,7.35,0,0,0-.56-.74l24.72-24.81ZM12.14,251.42l25.33,25.1,0,20.61L11.39,252A7.31,7.31,0,0,0,12.14,251.42Zm26.33,26.09L56.13,295l-6.39,23.4L38.45,298.86Zm10.9,42.27-10,36.8a7.34,7.34,0,0,0-.93-.13l.06-55.58Zm-4.19,44.46H75l6,10.36-36-9.48A7.32,7.32,0,0,0,45.18,364.24Zm31,0h25.59l4.59,17.05-24-6.32Zm26.62,0h22.51l-.06,22-17.78-4.69Zm22.44,23.07-.07,25.88-10.88-6.23-6.53-24.26Zm-.08,27-.08,29.16a7.21,7.21,0,0,0-.93.12l-9.5-35.3Zm33.48,18,22.83-13.11,12.79,12.68-24.81,6.62Zm23.73-13.63,19.4-11.14,11.26,19.33-17.65,4.71Zm31.19,9.08L226.49,450,214,450l-17.73-17.57ZM227.08,451,242,476.51a7.22,7.22,0,0,0-.68.57L215,451Zm52.29-1.16,17.39-17.3,23.87,6.29-19,10.94ZM322,439.17l36.08,9.52a7.34,7.34,0,0,0-.12.9l-54.3.16Zm43.78,3.6.1-28.9L376,408l-9.34,34.86A7.26,7.26,0,0,0,365.79,442.77Zm.1-30.05.08-25.58,16.84-4.49-6.44,24ZM366,386.1l.07-21.91h21.71l-4.65,17.34Zm22.82-21.92h26l-6.15,10.54-24.41,6.52Zm60.82-7.44a7.29,7.29,0,0,0-.89.38l-14.3-24.63L440.51,322Zm-15.77-25.25-13-22.42,12.9-12.84,6.42,24.45Zm-13.53-23.32L409,288.7l0-.15,19.7-11.31,4.69,17.87Zm9.34-31.45,21.9-12.58v13l-17.27,17.19Zm22.9-13.15,26.75-15.36a7.31,7.31,0,0,0,.55.73l-27.31,27.17Zm28-24.9L452.6,211.15l0-22.71,28.67,49.65A7.31,7.31,0,0,0,480.52,238.67ZM451.6,210.17l-17-16.8,6.63-24.74,10.44,18.08Zm-10-42.9,9.23-34.45a7.34,7.34,0,0,0,.9.13l-.05,51.78Zm3.72-44L410.82,114,401,96.94l44.65,25.51A7.3,7.3,0,0,0,445.28,123.27Zm-35.83-9.61-24.3-6.52-5.94-22.62,20,11.43ZM378.87,83.17,369,45.41a7.36,7.36,0,0,0,.87-.37l28.4,49.2Zm-19.42-43.3L321,50.08l-19.5-11.14,57.87,0A7.24,7.24,0,0,0,359.45,39.87ZM319.59,50.45l-23.64,6.28-18.06-17.8h21.56ZM276.88,37.93,250.65,12.07a7.21,7.21,0,0,0,.54-.71L297.7,37.94ZM238.53,10.5,190.66,37.88l-56.64,0a7.24,7.24,0,0,0-.11-.87L238.18,9.65A7.3,7.3,0,0,0,238.53,10.5Zm-115,34.42a7.34,7.34,0,0,0,.8.33l-9.89,36.24L96.64,91.67Zm-9.46,37.93-6.53,23.91L84.42,112.9,95.65,93.38Zm-31,30.41-38,10.09a7.33,7.33,0,0,0-.35-.83L93.93,94.37ZM39.54,132.88l10.27,38.17L38.56,190.61,38.62,133A7.23,7.23,0,0,0,39.54,132.88Zm10.64,39.54,6.31,23.45-17.95,18,0-21.27ZM37.54,214.89,12.1,240.41a7.29,7.29,0,0,0-.72-.55l26.18-45.5Zm-27,37.6,26.93,46.64-.06,57.32a7.25,7.25,0,0,0-.85.11L9.63,252.86A7.37,7.37,0,0,0,10.52,252.49ZM44.81,366.08l36.92,9.73,10.75,18.62-48-27.5A7.35,7.35,0,0,0,44.81,366.08Zm38.28,10.09,23.58,6.22,6.42,23.85L94.2,395.42Zm30.36,31.43,9.76,36.26a7.36,7.36,0,0,0-.83.35L95.2,397.15Zm19.3,41.78,36.58-9.76,18.28,10.47-54.74.16A7.24,7.24,0,0,0,132.75,449.38Zm37.95-10.13,24.4-6.51L212.54,450l-22.93.07ZM213.55,451l27,26.8a7.29,7.29,0,0,0-.71,1.06l-48.53-27.8Zm39.23,28.07,49.15-28.34,56.06-.17a7.3,7.3,0,0,0,.12.91L253.18,480A7.33,7.33,0,0,0,252.77,479.09Zm115.73-35.58a7.35,7.35,0,0,0-.87-.36l9.6-35.82,18.65-10.76ZM377.6,406l6.33-23.62,24-6.4-11,18.89Zm31.7-30.39L445,366a7.32,7.32,0,0,0,.36.84l-46.74,27Zm41.29-19.08-9.36-35.67,10.29-17.63-.05,53.19A7.32,7.32,0,0,0,450.58,356.49Zm-9.72-37-6.31-24,17-16.89,0,22.68Zm11.67-41.93,28-27.88a7.22,7.22,0,0,0,.71.55l-28.75,49.29ZM483,237.24a7.38,7.38,0,0,0-.84.35l-29.53-51.15.05-53.51a7.25,7.25,0,0,0,2.23-.51ZM446.72,120.79a7.26,7.26,0,0,0-.62.8L400,95.22,370.7,44.54a7.32,7.32,0,0,0,.67-.51ZM359.44,37.15a7.31,7.31,0,0,0-.11.82l-59.61,0-48-27.44a7.31,7.31,0,0,0,.35-.89ZM121.89,43.82a7.23,7.23,0,0,0,.77.59L94.92,92.65l-50.71,29a7.34,7.34,0,0,0-.53-.71ZM36.8,132.9a7.25,7.25,0,0,0,.82.11l-.06,59.34-27,47a7.33,7.33,0,0,0-.91-.36Zm6.61,235.62a7.24,7.24,0,0,0,.55-.72l49.51,28.36,28,48.56a7.37,7.37,0,0,0-.75.57Zm89.34,83.66a7.32,7.32,0,0,0,.13-.93l56.47-.17,50.1,28.7a7.35,7.35,0,0,0-.29,1Zm237.32-7.62a7.27,7.27,0,0,0-.71-.54l28.26-48.45,48.26-27.82a7.29,7.29,0,0,0,.54.72Zm83.36-88a7.35,7.35,0,0,0-1-.14l.06-54.9,29.61-50.77a7.29,7.29,0,0,0,.8.33Z"/><path class="cls-1" d="M134.17,223.41h-4.5q-4.15,0-5.45,2.33l-15.41,27.09L93.58,225.75q-1.3-2.33-5.45-2.33H83.54q-5.19,0-5.19,2.77v55.39q0,2.77,5.19,2.77h2.51q5.19,0,5.19-2.77V245.74l.35-.08,12.55,22.41a4,4,0,0,0,3.46,1.64h2.51a4,4,0,0,0,3.46-1.64l12.55-22.41.35.08v35.83q0,2.77,5.19,2.77h2.51q5.19,0,5.19-2.77V226.18Q139.36,223.41,134.17,223.41Z"/><path class="cls-1" d="M242.6,223.59H201.67q-2.6,0-2.6,4.33v2.68q0,4.33,2.6,4.33h13.76v46.65q0,2.77,5.19,2.77h3q5.19,0,5.19-2.77V234.92H242.6q2.6,0,2.6-4.33v-2.68Q245.2,223.59,242.6,223.59Z"/><path class="cls-1" d="M289.85,261.92a22.6,22.6,0,0,0-2.86-5.06,8.13,8.13,0,0,0-3.38-2.9v-.35a16,16,0,0,0,7.4-5.32,13.55,13.55,0,0,0,2.73-8.44q0-16.27-21.55-16.27H255.32q-3.46,0-3.46,3.46v54.52q0,2.77,5.19,2.77H260q5.19,0,5.19-2.77V260.45h3.38q3.89,0,5.58,1.17a10.79,10.79,0,0,1,3.16,4l6.84,16.87q.69,1.82,5,1.82h3.55q5.19,0,5.19-1.73a5.26,5.26,0,0,0-.43-1.64Zm-11.77-15.15a6.16,6.16,0,0,1-4.67,2.17h-8.22v-14h7.62a7.61,7.61,0,0,1,5.32,1.77,6.24,6.24,0,0,1,1.95,4.85A7.45,7.45,0,0,1,278.08,246.78Z"/><path class="cls-1" d="M312.35,223.33h-3q-5.19,0-5.19,2.86v55.39q0,2.85,5.19,2.86h3q5.19,0,5.19-2.86V226.18Q317.54,223.32,312.35,223.33Z"/><path class="cls-1" d="M369.64,270.06a10.09,10.09,0,0,0-2.25.87,28.57,28.57,0,0,1-11.94,2.6q-14.79,0-14.8-19.6t15-19.6a25.9,25.9,0,0,1,10.9,2.08,8.91,8.91,0,0,0,1.82.69q1.56,0,3.59-3.12t2-5q0-2.6-5.88-4.33a43,43,0,0,0-12.2-1.73q-28.9,0-28.9,30.81,0,16,7,23.58t21.5,7.57A45.08,45.08,0,0,0,368.34,283q6.41-1.9,6.41-5.37A10.73,10.73,0,0,0,373.1,273Q371.46,270.06,369.64,270.06Z"/><path class="cls-1" d="M407.39,234.92h10.36q2.59,0,2.6-4.33v-2.68q0-4.33-2.6-4.33H386.08q-3.46,0-3.46,3.46v7.87h24.77Z"/><path class="cls-1" d="M403.09,258.81h12.32q2.6,0,2.6-4.33V251.8q0-4.33-2.6-4.33h-32.8v11.33h20.47Z"/><path class="cls-1" d="M417.84,272.83H382.62v7.87q0,3.46,3.46,3.46h31.76q2.6,0,2.6-4.33v-2.68Q420.43,272.83,417.84,272.83Z"/><path class="cls-1" d="M179.08,225.23q-.7-1.82-4.93-1.82h-4.5q-4.24,0-4.93,1.82l-19,55.64a8,8,0,0,0-.35,1.56q0,1.91,5.28,1.91h3.46q3.38,0,4-1.82L161.52,272l3.72-11.42s5.89-18.23,6.41-20.94H172l6.23,20.94L181.94,272l3.46,10.56q.6,1.82,4.85,1.82h3.81q4.33,0,4.33-1.91a5.4,5.4,0,0,0-.26-1.56Z"/></svg>