<svg id="Layer_1" data-name="Layer 1" xmlns="http://www.w3.org/2000/svg" viewBox="0 0 136.44 185.39"><defs><style>.cls-1{fill:#fff;}</style></defs><title>Artboard 5</title><path class="cls-1" d="M22.3,174a6,6,0,0,0-2-1.34,7.13,7.13,0,0,0-2.76-.5,7.11,7.11,0,0,0-2.77.5,6,6,0,0,0-2,1.34A5.52,5.52,0,0,0,11.51,176a6.66,6.66,0,0,0,0,4.61,5.52,5.52,0,0,0,1.23,1.94,6,6,0,0,0,2,1.34,7.11,7.11,0,0,0,2.77.5,7.14,7.14,0,0,0,2.76-.5,6,6,0,0,0,2-1.34,5.52,5.52,0,0,0,1.23-1.94,6.66,6.66,0,0,0,0-4.61A5.52,5.52,0,0,0,22.3,174ZM19,180.13a2,2,0,0,1-3,0,3.24,3.24,0,0,1,0-3.7,2,2,0,0,1,3,0,3.24,3.24,0,0,1,0,3.7Z"/><path class="cls-1" d="M38.33,178.23a5.6,5.6,0,0,0-1.39-.8,16,16,0,0,0-2.14-.7,6.14,6.14,0,0,1-1.4-.48.62.62,0,0,1-.36-.55.49.49,0,0,1,.25-.46,1.21,1.21,0,0,1,.62-.14,3.66,3.66,0,0,1,1.38.3,11.53,11.53,0,0,1,1.83,1l1.6-2.54a6.27,6.27,0,0,0-2.35-1.36,8.91,8.91,0,0,0-2.46-.33,5.92,5.92,0,0,0-1.93.3,4.45,4.45,0,0,0-1.52.86,4,4,0,0,0-1,1.32,3.82,3.82,0,0,0-.36,1.65,2.78,2.78,0,0,0,.22,1.16,2.37,2.37,0,0,0,.75.89,6,6,0,0,0,1.36.75,19.59,19.59,0,0,0,2.08.7,5.83,5.83,0,0,1,1.35.51.64.64,0,0,1,.35.53q0,.56-.89.56a5.1,5.1,0,0,1-1.86-.4,11.15,11.15,0,0,1-2.11-1.14l-1.45,2.54a6.81,6.81,0,0,0,2.5,1.46,9.26,9.26,0,0,0,3,.5,7.17,7.17,0,0,0,2-.27,4.4,4.4,0,0,0,1.54-.78,3.43,3.43,0,0,0,1-1.23,3.79,3.79,0,0,0,.33-1.63,3.32,3.32,0,0,0-.22-1.26A2.51,2.51,0,0,0,38.33,178.23Z"/><path class="cls-1" d="M51.39,180.43a3,3,0,0,1-.71.1.93.93,0,0,1-.67-.23,1.1,1.1,0,0,1-.25-.81v-3.88h2.3v-3.19h-2.3v-3.68H45.53v3.68H44.08v3.19h1.45V181a4.05,4.05,0,0,0,.28,1.6,2.75,2.75,0,0,0,.76,1,3,3,0,0,0,1.13.58,5.1,5.1,0,0,0,1.36.18,8.14,8.14,0,0,0,2-.26A13,13,0,0,0,53,183.5l-.76-3.34A4.84,4.84,0,0,1,51.39,180.43Z"/><path class="cls-1" d="M68.75,174a6,6,0,0,0-2-1.34,7.89,7.89,0,0,0-5.54,0,5.92,5.92,0,0,0-2,1.35A5.57,5.57,0,0,0,58,176a7,7,0,0,0-.41,2.41,6.05,6.05,0,0,0,.42,2.25,5.6,5.6,0,0,0,1.24,1.89,5.8,5.8,0,0,0,2,1.3,7.37,7.37,0,0,0,2.74.48,7,7,0,0,0,3.64-.89,5.66,5.66,0,0,0,2.2-2.3l-3.59-1a1.57,1.57,0,0,1-.81.87,2.83,2.83,0,0,1-1.3.31,2.41,2.41,0,0,1-1.36-.41,1.65,1.65,0,0,1-.69-1.35h8.23q0-.27.08-.61t0-.68A6.54,6.54,0,0,0,70,176,5.52,5.52,0,0,0,68.75,174ZM62,177a2.17,2.17,0,0,1,.62-1.34,2,2,0,0,1,2.63,0,2.18,2.18,0,0,1,.62,1.34Z"/><path class="cls-1" d="M87.25,173.71a3,3,0,0,0-1.07-1.08,3.6,3.6,0,0,0-1.91-.43,6.5,6.5,0,0,0-2.66.5,3.94,3.94,0,0,0-1.75,1.46v-1.74H76.05v11.72h4.24v-6.58a2.79,2.79,0,0,1,.89-1.2,1.89,1.89,0,0,1,1.14-.47,1.24,1.24,0,0,1,.9.39,1.73,1.73,0,0,1,.39,1.26v6.6h4.23v-7.71a9,9,0,0,0-.11-1.34A4,4,0,0,0,87.25,173.71Z"/><path class="cls-1" d="M106.47,179.47V167.87h-4.24v6.29a3.57,3.57,0,0,0-1.46-1.45,4.31,4.31,0,0,0-2.08-.51,4.67,4.67,0,0,0-2.07.46A4.87,4.87,0,0,0,95,173.93a6,6,0,0,0-1.06,1.93,7.42,7.42,0,0,0-.38,2.41,7.1,7.1,0,0,0,.41,2.46,5.85,5.85,0,0,0,1.15,1.94,5.09,5.09,0,0,0,1.75,1.26,5.45,5.45,0,0,0,2.22.45,5,5,0,0,0,2.18-.49,3.66,3.66,0,0,0,1.63-1.56l.09.42q.33,1.63,2.5,1.63a9.34,9.34,0,0,0,1.78-.22v-3.57a.85.85,0,0,1-.62-.28A1.44,1.44,0,0,1,106.47,179.47Zm-4.21.13a2.43,2.43,0,0,1-2,1.2,2.21,2.21,0,0,1-1.68-.67,2.48,2.48,0,0,1-.64-1.78,3,3,0,0,1,.17-1,2.92,2.92,0,0,1,.45-.82,2,2,0,0,1,.67-.56,1.85,1.85,0,0,1,.86-.2,2,2,0,0,1,1.27.48,3,3,0,0,1,.91,1.26Z"/><path class="cls-1" d="M123.71,174a6,6,0,0,0-2-1.34,7.89,7.89,0,0,0-5.54,0,6,6,0,0,0-2,1.34,5.52,5.52,0,0,0-1.23,1.94,6.66,6.66,0,0,0,0,4.61,5.52,5.52,0,0,0,1.23,1.94,6,6,0,0,0,2,1.34,7.89,7.89,0,0,0,5.54,0,6,6,0,0,0,2-1.34,5.52,5.52,0,0,0,1.23-1.94,6.66,6.66,0,0,0,0-4.61A5.52,5.52,0,0,0,123.71,174Zm-3.29,6.1a2,2,0,0,1-3,0,3.24,3.24,0,0,1,0-3.7,2,2,0,0,1,3,0,3.24,3.24,0,0,1,0,3.7Z"/><path class="cls-1" d="M135.41,71.69a66.78,66.78,0,0,0-9.59-34.56A44.76,44.76,0,0,0,118,22.82c-4.26-5.12-10-8.73-16-11.43A128.32,128.32,0,0,0,82.27,4.34C68.94.82,54.25.18,42,7.41a51.1,51.1,0,0,0-9.68,7.51,67.14,67.14,0,0,0-3,111.48C36.87,135,48,139.47,59.62,139.94a64.84,64.84,0,0,0,15.75-1.44A67.29,67.29,0,0,0,135.41,71.69Zm-133.84,0A66.62,66.62,0,0,1,30.43,16.83c-6,6.35-10.9,13.94-15.25,21.2Q12.42,42.63,10,47.42l0,0a4,4,0,0,0-.35.83,54.54,54.54,0,0,0-2.42,12,69,69,0,0,0,2.43,22,156.5,156.5,0,0,0,7.5,21.12c2.73,6.49,5.28,13.3,9.2,19.18q.72,1.08,1.5,2.09A66.57,66.57,0,0,1,1.58,71.69Zm80,65.31.2-.06a107.89,107.89,0,0,0,18.77-7A66.17,66.17,0,0,1,81.53,137Zm24.3-19.21c-4.58,4.09-10.28,6.64-16,8.76a100.33,100.33,0,0,1-20.1,5.53c-11.21,1.66-24,0-32.63-8-4.54-4.18-7.3-9.74-9.76-15.3-2.13-4.81-4.21-9.65-6.1-14.57a51.91,51.91,0,1,0-4-11.76A72.25,72.25,0,0,1,14.71,70c-.54-5.23-.66-10.83.84-15.91l1-3.43C22.29,39.54,29.12,28.2,38.18,19.51a36.38,36.38,0,0,1,15-9A44,44,0,0,1,71.3,9.54a93,93,0,0,1,18.5,4.84c5.78,2.07,11.59,4.35,16.69,7.83,9.17,6.26,13.21,16.86,14.88,27.43a103.24,103.24,0,0,1,1,16.27,131.82,131.82,0,0,1-1.29,20.38C119.26,98,114.88,109.71,105.84,117.79ZM16.67,71.69a51.55,51.55,0,1,1,51.55,51.55A51.61,51.61,0,0,1,16.67,71.69Zm96.7,49c15.36-16,17.5-42.18,16.1-63.64a81,81,0,0,0-2.87-17.44,66.53,66.53,0,0,1-13.22,81.09Z"/></svg>