<svg id="Layer_1" data-name="Layer 1" xmlns="http://www.w3.org/2000/svg" viewBox="0 0 283.46 283.46"><defs><style>.cls-1,.cls-2{fill:#fff;}.cls-1{opacity:0.5;}</style></defs><title>Artboard 2</title><polygon class="cls-1" points="188.97 0 0 188.97 0 283.45 94.49 188.97 188.97 94.49 283.46 0 188.97 0 188.97 0"/><polygon class="cls-1" points="0 0 0 94.49 94.49 0 0 0 0 0"/><polygon class="cls-1" points="188.97 188.97 94.49 283.46 188.97 283.46 188.97 283.45 283.46 188.97 283.46 94.49 188.97 188.97 188.97 188.97"/><path class="cls-2" d="M20.66,249.43H37.77c10.16,0,16.64-7.48,16.64-16.74,0-10.27-8.16-15.9-17.9-15.9H20.66v1.53l2.95.63c1.21.26,1.37.42,1.37,1.11v26.17c0,.74-.16.79-1.42,1.06l-2.9.63v1.52ZM35.3,247.7a14.38,14.38,0,0,1-4.21-.58v-28a10,10,0,0,1,3.42-.68h1.11c9.48,0,12.32,7.05,12.32,14.48,0,9.21-4.63,14.79-11.58,14.79Zm34.07,2.37c5.21,0,8.06-2.53,9.9-6.32l-.53-.52a7.88,7.88,0,0,1-6.48,3.27c-5.16,0-8.53-3.74-8.58-10.48v-1l15.38.37a25.76,25.76,0,0,0,.32-2.84c0-5.32-4.05-8.42-9.27-8.42-7.16,0-11.85,5.63-11.85,13s4.27,13,11.11,13m-5.53-16.59c.37-3.95,2.37-7.53,6.11-7.53,2.69,0,4.21,1.89,4.21,5.53a4.48,4.48,0,0,1-.26,1.53l-10.06.47Zm6-12.69H71.1l5.37-5.37a4.41,4.41,0,0,0,1.37-2.79A1.82,1.82,0,0,0,76,210.84a3.62,3.62,0,0,0-2.84,2.27l-3.32,7.69Zm24.85,29.28c4.84,0,7.69-2.53,9.37-6.21l-.58-.58a7.11,7.11,0,0,1-6.05,3.22c-5,0-8.11-4.22-8.11-10.48,0-4.89,2.26-10,6.69-10a4.51,4.51,0,0,1,3.74,1.58l-.68,1.11a4.12,4.12,0,0,0-.68,2.05,2.93,2.93,0,1,0,5.84-.32,6.05,6.05,0,0,0-2.16-4.06A8.9,8.9,0,0,0,96,224.11c-7.16,0-12.16,5.74-12.16,13,0,7.42,4.11,13,10.85,13m26,0c7.42,0,12.38-5.79,12.38-13.06,0-7.69-5-12.9-12.38-12.9s-12.43,5.68-12.43,13c0,7.74,5,13,12.43,13m0-1.74c-4.32,0-6.48-5.8-6.48-11.32,0-7,2.58-11,6.48-11,4.32,0,6.48,5.43,6.48,11,0,7.16-2.58,11.37-6.48,11.37m16.16,1.1h13.85v-1.26l-3.32-.63c-1.42-.32-1.63-.42-1.63-1.11V231.32a5.2,5.2,0,0,1,4.32-2.73,3.22,3.22,0,0,1,2.79,1.89s2.42-1.37,2.42-3.79c0-1.48-1.58-2.58-3.11-2.58-2.73,0-5.31,2.47-6.42,5.74v-5.74h-1.58l-7.27,1.47v1.05l1.32.58c1.9.84,2.11,1.21,2.11,2.26v17.17c0,.74-.21.68-1.69,1.05l-1.79.48v1.26Zm26.91.64A8.11,8.11,0,0,0,171,246c.37,2.53,1.37,4.11,4.26,4.11a11.5,11.5,0,0,0,5.16-1.53v-1.05a10.27,10.27,0,0,1-3.74-.52,13.45,13.45,0,0,1-.37-4.05V231.69c0-5.48-3.11-7.58-8.32-7.58a10.5,10.5,0,0,0-5.58,1.58l-1.37.9c-1.16.74-3.11,2.21-3.11,4.21,0,1.74.9,2.85,2.63,2.85a2.77,2.77,0,0,0,2.9-3,4.48,4.48,0,0,0-.58-1.95l-.74-1.26a6.71,6.71,0,0,1,3.74-1.05c3.16,0,5.06,1.74,5.06,5.9v2.9l-4.27,1.1c-4.42,1.16-9.79,2.9-9.79,7.53,0,3.89,2.48,6.21,6.85,6.21m2.26-3a3.66,3.66,0,0,1-4-4c0-3.11,3.05-4.32,5.32-5.06l3.64-1.16v7.37a6.16,6.16,0,0,1-5,2.84m25.91,3a8.16,8.16,0,0,0,7.27-4l-.53-.63a5.65,5.65,0,0,1-3.74,1.68c-3.05,0-4.21-1.26-4.21-4.69V227.84h6.85v-2.42h-6.85v-7.11h-2a32.94,32.94,0,0,1-2.79,6.16,17.53,17.53,0,0,1-3.37,1.58v1.79h2.79v15.85c0,4.11,2.37,6.37,6.58,6.37m15-31.28a3.3,3.3,0,0,0,3.32-3.32,3.34,3.34,0,0,0-3.32-3.32,3.39,3.39,0,0,0-3.37,3.32,3.32,3.32,0,0,0,3.37,3.32m-6.32,30.64H212.9v-1.26l-1.79-.48c-1.42-.37-1.63-.31-1.63-1.05V224.11H207.9l-7.27,1.47v1.05l1.32.58c1.9.84,2.11,1.21,2.11,2.26v17.17c0,.74-.21.68-1.69,1.05l-1.79.48v1.26Zm15.48,0h13.85v-1.26l-3.48-.69c-1.42-.32-1.47-.47-1.47-1.21V228h5.85v-2.53H225v-4.06c0-5.58,2.21-7.53,4.47-7.53-.79,3.53,1.42,4.64,2.9,4.64a2.73,2.73,0,0,0,2.74-2.79c0-2.42-2.11-3.48-4.47-3.48-6.9,0-11,4-11,11.69v1.53H216.8L215.9,228h3.63v18.69c0,.68-.21.68-1.68,1.05l-1.79.48v1.26Zm18.69.64H236l.74-1.48a11.41,11.41,0,0,0,6.32,1.48c5.06,0,9.27-2.48,9.27-7.58,0-3.53-3.11-5.48-5.16-6.37l-4.53-1.95c-2-.84-2.63-2.31-2.63-4.42a4.2,4.2,0,0,1,4.37-4.05,5.24,5.24,0,0,1,3.89,2.05,12.86,12.86,0,0,1,1.42,4.37h1.48v-8h-1.26l-.74,1.36a9.72,9.72,0,0,0-5.11-1.36c-4.85,0-9.21,2.73-9.21,7.53,0,3.53,2.53,5.74,5.11,6.74L244,240a4.4,4.4,0,0,1,2.95,4.21c0,2.42-1.84,4.11-4.58,4.11a6,6,0,0,1-4.06-1.9A22.33,22.33,0,0,1,236,240.8h-1.47l.26,9.27Z"/><path class="cls-2" d="M38.77,204.26l9-1.26v-1.11l-2.16-.53c-1.26-.31-1.42-.42-1.42-1.21V173.72a68.9,68.9,0,0,1,.37-7.58H43l-8.37,1.21v1.06l1.89.52c2.21.64,2.27.79,2.27,2.69v8.85A6.9,6.9,0,0,0,33.3,178c-7.11,0-12.17,5.84-12.17,13.06,0,7.58,3.9,12.9,10.32,12.9a8.22,8.22,0,0,0,7.32-4.21v4.47Zm-4.21-3.58c-4.58,0-7.64-3.27-7.64-10,0-6.16,3-10.37,7.53-10.37a7.82,7.82,0,0,1,4.32,1.32v16.69a5.47,5.47,0,0,1-4.21,2.32M62.31,204c5.21,0,8.06-2.53,9.9-6.32l-.53-.53a7.88,7.88,0,0,1-6.48,3.27c-5.16,0-8.53-3.74-8.58-10.48v-1L72,189.3a26.46,26.46,0,0,0,.31-2.85c0-5.31-4.05-8.42-9.27-8.42-7.16,0-11.85,5.63-11.85,13s4.26,13,11.11,13m-5.53-16.58c.37-3.95,2.37-7.53,6.11-7.53,2.69,0,4.21,1.89,4.21,5.52a4.42,4.42,0,0,1-.26,1.53l-10.06.48Zm21,16.58h1.26l.74-1.47A11.4,11.4,0,0,0,86.11,204c5.05,0,9.27-2.47,9.27-7.58,0-3.53-3.11-5.48-5.16-6.37l-4.53-1.95c-1.95-.84-2.63-2.31-2.63-4.42a4.19,4.19,0,0,1,4.37-4.05,5.24,5.24,0,0,1,3.9,2.05A12.77,12.77,0,0,1,92.74,186h1.48v-8H93l-.74,1.37A9.73,9.73,0,0,0,87.11,178c-4.84,0-9.21,2.74-9.21,7.53,0,3.52,2.53,5.73,5.11,6.74l4.05,1.58A4.4,4.4,0,0,1,90,198.1c0,2.42-1.84,4.11-4.58,4.11a6,6,0,0,1-4.05-1.9A22.34,22.34,0,0,1,79,194.73H77.52l.26,9.27Zm29.28-.63h10.27v-1.53l-2.74-.58c-.63-.16-1-.37-.74-1.16l2.16-6.32h11.64l2.26,6.11c.32.84.05,1.16-.84,1.37l-2.79.58v1.53h13.27v-1.53l-1.84-.53a1.9,1.9,0,0,1-1.32-1.21l-11.32-30.22h-2.95L110.75,200a1.63,1.63,0,0,1-1.32,1.21l-2.37.58v1.53Zm9.69-11.9,4.9-14.11,5.16,14.11Zm24.59,11.9h13.85V202.1l-3.32-.63c-1.42-.31-1.63-.42-1.63-1.11V185.25a5.19,5.19,0,0,1,4.32-2.73,3.23,3.23,0,0,1,2.79,1.89s2.42-1.36,2.42-3.79c0-1.47-1.58-2.58-3.11-2.58-2.74,0-5.32,2.48-6.43,5.74V178h-1.58l-7.26,1.47v1.05l1.32.58c1.89.84,2.1,1.21,2.1,2.27v17.16c0,.74-.21.68-1.68,1.05l-1.79.48v1.26Zm28.91.63a8.15,8.15,0,0,0,7.27-4l-.53-.63a5.65,5.65,0,0,1-3.74,1.68c-3.05,0-4.21-1.26-4.21-4.69V181.77h6.85v-2.43H169v-7.1h-2a32.74,32.74,0,0,1-2.79,6.16,17.27,17.27,0,0,1-3.37,1.58v1.79h2.79v15.85c0,4.1,2.37,6.37,6.58,6.37m10,0h1.26l.74-1.47a11.4,11.4,0,0,0,6.32,1.47c5.06,0,9.27-2.47,9.27-7.58,0-3.53-3.11-5.48-5.16-6.37l-4.53-1.95c-1.95-.84-2.63-2.31-2.63-4.42a4.19,4.19,0,0,1,4.37-4.05,5.23,5.23,0,0,1,3.89,2.05,12.68,12.68,0,0,1,1.42,4.37h1.48v-8h-1.26l-.74,1.37a9.71,9.71,0,0,0-5.11-1.37c-4.84,0-9.21,2.74-9.21,7.53,0,3.52,2.53,5.73,5.11,6.74l4.06,1.58a4.4,4.4,0,0,1,2.95,4.21c0,2.42-1.84,4.11-4.58,4.11a6,6,0,0,1-4.05-1.9,22.35,22.35,0,0,1-2.37-5.58h-1.47l.26,9.27Z"/><path class="cls-2" d="M21.87,157.92h1.26l.74-1.47a11.43,11.43,0,0,0,6.32,1.47c5.06,0,9.27-2.47,9.27-7.58,0-3.53-3.11-5.48-5.16-6.37L29.77,142c-1.95-.84-2.63-2.32-2.63-4.42a4.2,4.2,0,0,1,4.37-4.06,5.24,5.24,0,0,1,3.9,2.05A12.82,12.82,0,0,1,36.82,140H38.3v-8H37l-.74,1.37A9.7,9.7,0,0,0,31.19,132c-4.84,0-9.21,2.74-9.21,7.53,0,3.53,2.53,5.74,5.11,6.74l4.05,1.58a4.4,4.4,0,0,1,3,4.21c0,2.42-1.84,4.11-4.58,4.11a6,6,0,0,1-4.05-1.89,22.52,22.52,0,0,1-2.37-5.58H21.61l.26,9.26Zm32.28,0a8.14,8.14,0,0,0,7.64-5.47v5.47l8.64-1.26v-1l-1.85-.74c-1.05-.42-1.42-.58-1.42-1.36V140.22a68.58,68.58,0,0,1,.37-7.58H65.94L58,133.7v1.05l2.05.84c1.42.58,1.69.58,1.69,2.05v13.22c-.95,2-2.53,3.9-5.53,3.9-4,0-4.74-3-4.74-7.27v-8.42c0-2.69.21-5.11.32-6.43H50.57l-7.69.69v1.21l1.58.63c1.37.52,1.63.52,1.63,1.37V149c0,5.68,2.79,8.89,8.06,8.89m19.33,11.9H87v-1.26l-3-.69c-1.37-.31-1.63-.31-1.63-1V155.44A7.32,7.32,0,0,0,88,157.92c7.16,0,12-5.79,12-13.48S96.27,132,90,132a8.52,8.52,0,0,0-7.69,4.69V132H80.74l-7.21,1.48v1.05l1.26.58c1.89.89,2.16,1.21,2.16,2.26v29.59c0,.74-.27.79-1.69,1.16l-1.79.48v1.26ZM86.63,155.6a7.22,7.22,0,0,1-4.32-1.42V138.07a6,6,0,0,1,5-2.84c4.63,0,6.9,3.64,6.9,9.58,0,6.79-2.9,10.8-7.53,10.8m28.86,2.31c5.21,0,8.06-2.53,9.9-6.32l-.52-.52a7.89,7.89,0,0,1-6.48,3.26c-5.16,0-8.53-3.74-8.58-10.48v-1l15.37.37a25.9,25.9,0,0,0,.32-2.84c0-5.32-4.05-8.43-9.27-8.43-7.16,0-11.85,5.64-11.85,13s4.27,12.95,11.11,12.95M110,141.33c.37-3.95,2.37-7.53,6.11-7.53,2.69,0,4.21,1.89,4.21,5.53a4.37,4.37,0,0,1-.26,1.53l-10.06.47Zm6-12.69h1.26l5.37-5.37a4.41,4.41,0,0,0,1.37-2.79,1.82,1.82,0,0,0-1.85-1.79,3.61,3.61,0,0,0-2.84,2.26L116,128.64Zm13.8,28.65h13.85V156l-3.32-.63c-1.42-.31-1.63-.42-1.63-1.1V139.17a5.2,5.2,0,0,1,4.32-2.74,3.23,3.23,0,0,1,2.79,1.9s2.42-1.37,2.42-3.79c0-1.48-1.58-2.58-3.11-2.58-2.74,0-5.32,2.48-6.42,5.74V132h-1.58l-7.27,1.48v1.05l1.32.58c1.9.84,2.11,1.21,2.11,2.26v17.17c0,.74-.21.69-1.68,1.06l-1.79.47v1.26Zm26.33-30.65a3.3,3.3,0,0,0,3.32-3.31,3.34,3.34,0,0,0-3.32-3.32,3.38,3.38,0,0,0-3.37,3.32,3.31,3.31,0,0,0,3.37,3.31m-6.32,30.65h12.32V156l-1.79-.47c-1.42-.37-1.63-.32-1.63-1.06V132h-1.58l-7.27,1.48v1.05l1.32.58c1.89.84,2.11,1.21,2.11,2.26v17.17c0,.74-.21.69-1.69,1.06l-1.79.47v1.26Zm26.91.63c5.21,0,8.05-2.53,9.9-6.32l-.53-.52a7.89,7.89,0,0,1-6.47,3.26c-5.16,0-8.53-3.74-8.58-10.48v-1l15.38.37a26.14,26.14,0,0,0,.31-2.84c0-5.32-4.05-8.43-9.27-8.43-7.16,0-11.85,5.64-11.85,13s4.27,12.95,11.11,12.95m-5.53-16.59c.37-3.95,2.37-7.53,6.11-7.53,2.69,0,4.21,1.89,4.21,5.53a4.4,4.4,0,0,1-.26,1.53l-10.06.47Zm30.33,16.59a8.14,8.14,0,0,0,7.64-5.47v5.47l8.64-1.26v-1l-1.84-.74c-1.05-.42-1.42-.58-1.42-1.36V140.22a68.29,68.29,0,0,1,.37-7.58h-1.58l-7.9,1.05v1.05l2.06.84c1.42.58,1.68.58,1.68,2.05v13.22c-.94,2-2.53,3.9-5.53,3.9-4,0-4.74-3-4.74-7.27v-8.42c0-2.69.21-5.11.32-6.43h-1.26l-7.69.69v1.21l1.58.63c1.37.52,1.63.52,1.63,1.37V149c0,5.68,2.79,8.89,8.05,8.89m19.8-.63h13.85V156l-3.32-.63c-1.42-.31-1.63-.42-1.63-1.1V139.17a5.19,5.19,0,0,1,4.32-2.74,3.23,3.23,0,0,1,2.79,1.9s2.42-1.37,2.42-3.79c0-1.48-1.58-2.58-3.11-2.58-2.74,0-5.32,2.48-6.42,5.74V132h-1.58l-7.27,1.48v1.05l1.32.58c1.89.84,2.1,1.21,2.1,2.26v17.17c0,.74-.21.69-1.68,1.06l-1.79.47v1.26Zm31.39.63c5.21,0,8.05-2.53,9.9-6.32l-.52-.52a7.89,7.89,0,0,1-6.48,3.26c-5.16,0-8.53-3.74-8.58-10.48v-1l15.38.37a25.54,25.54,0,0,0,.32-2.84c0-5.32-4.05-8.43-9.27-8.43-7.16,0-11.85,5.64-11.85,13s4.27,12.95,11.11,12.95m-5.53-16.59c.37-3.95,2.37-7.53,6.11-7.53,2.69,0,4.21,1.89,4.21,5.53a4.31,4.31,0,0,1-.27,1.53l-10.05.47Z"/><path class="cls-2" d="M20.66,111.21H33v-1.26l-1.79-.47c-1.42-.37-1.63-.31-1.63-1.05V92.94a6.41,6.41,0,0,1,5.74-4c4.27,0,4.95,3.42,4.95,7v12.53c0,.74-.16.63-1.68,1.05l-1.79.47v1.26H49v-1.26l-1.79-.47c-1.42-.37-1.63-.31-1.63-1.05V94.52c0-5.21-2.63-8.64-8-8.64-4.11,0-6.58,2.47-8.06,5.42V85.89H28l-7.27,1.47v1.05L22,89c1.89.84,2.11,1.21,2.11,2.27v17.17c0,.74-.21.68-1.69,1.05l-1.79.47v1.26Zm38.49.63a8.11,8.11,0,0,0,7.27-4.11c.37,2.53,1.37,4.11,4.26,4.11a11.55,11.55,0,0,0,5.16-1.53v-1.05a10.36,10.36,0,0,1-3.74-.53,13.56,13.56,0,0,1-.37-4.05V93.47c0-5.48-3.11-7.58-8.32-7.58a10.5,10.5,0,0,0-5.58,1.58l-1.37.89c-1.16.74-3.11,2.21-3.11,4.21,0,1.73.9,2.84,2.63,2.84a2.77,2.77,0,0,0,2.9-3,4.49,4.49,0,0,0-.58-1.95l-.74-1.26a6.71,6.71,0,0,1,3.74-1.05c3.16,0,5.06,1.74,5.06,5.9V97L62.1,98.1c-4.42,1.16-9.79,2.9-9.79,7.53,0,3.9,2.48,6.21,6.85,6.21m2.26-3a3.66,3.66,0,0,1-4-4c0-3.11,3.05-4.32,5.32-5.05l3.63-1.16v7.37a6.16,6.16,0,0,1-5,2.84m25.91,3a8.16,8.16,0,0,0,7.27-4l-.53-.63a5.66,5.66,0,0,1-3.74,1.68c-3.06,0-4.21-1.26-4.21-4.69V89.63H93V87.2H86.11V80.09h-2a32.78,32.78,0,0,1-2.79,6.16,17.43,17.43,0,0,1-3.37,1.58v1.79h2.79v15.85c0,4.11,2.37,6.37,6.58,6.37m15-31.28a3.3,3.3,0,0,0,3.32-3.32,3.34,3.34,0,0,0-3.32-3.32A3.38,3.38,0,0,0,99,77.25a3.31,3.31,0,0,0,3.37,3.32M96,111.21h12.32v-1.26l-1.79-.47c-1.42-.37-1.63-.31-1.63-1.05V85.89h-1.58l-7.27,1.47v1.05l1.32.58c1.89.84,2.11,1.21,2.11,2.27v17.17c0,.74-.21.68-1.69,1.05l-1.79.47v1.26Zm28.06.63c7.43,0,12.38-5.79,12.38-13.06,0-7.69-4.95-12.9-12.38-12.9s-12.42,5.69-12.42,13c0,7.74,5,13,12.42,13m0-1.74c-4.32,0-6.47-5.79-6.47-11.32,0-7,2.58-11,6.47-11,4.32,0,6.48,5.42,6.48,11,0,7.16-2.58,11.37-6.48,11.37m16.17,1.1h12.32v-1.26l-1.79-.47c-1.42-.37-1.63-.31-1.63-1.05V92.94a6.4,6.4,0,0,1,5.74-4c4.26,0,4.95,3.42,4.95,7v12.53c0,.74-.16.63-1.68,1.05l-1.79.47v1.26h12.27v-1.26l-1.79-.47c-1.42-.37-1.63-.31-1.63-1.05V94.52c0-5.21-2.63-8.64-8-8.64-4.11,0-6.58,2.47-8.06,5.42V85.89h-1.58l-7.27,1.47v1.05l1.32.58c1.89.84,2.11,1.21,2.11,2.27v17.17c0,.74-.21.68-1.68,1.05l-1.79.47v1.26Zm38.49.63a8.11,8.11,0,0,0,7.27-4.11c.37,2.53,1.37,4.11,4.26,4.11a11.55,11.55,0,0,0,5.16-1.53v-1.05a10.33,10.33,0,0,1-3.74-.53,13.42,13.42,0,0,1-.37-4.05V93.47c0-5.48-3.11-7.58-8.32-7.58a10.5,10.5,0,0,0-5.58,1.58l-1.37.89c-1.16.74-3.11,2.21-3.11,4.21,0,1.73.9,2.84,2.63,2.84a2.77,2.77,0,0,0,2.9-3,4.49,4.49,0,0,0-.58-1.95l-.74-1.26a6.71,6.71,0,0,1,3.74-1.05c3.16,0,5.06,1.74,5.06,5.9V97l-4.26,1.1c-4.42,1.16-9.79,2.9-9.79,7.53,0,3.9,2.47,6.21,6.85,6.21m2.26-3a3.66,3.66,0,0,1-4-4c0-3.11,3.06-4.32,5.32-5.05l3.64-1.16v7.37a6.15,6.15,0,0,1-5,2.84m16.69,2.32H210v-1.26l-1.79-.47c-1.42-.37-1.63-.31-1.63-1.05V81.62c0-2.53.16-5.79.37-7.64h-1.58l-7.58,1.32v1.11l1.89.79c1.26.53,1.48.84,1.48,2.32v28.91c0,.74-.21.68-1.69,1.05l-1.79.47v1.26Zm27,.63c5.21,0,8.05-2.53,9.89-6.32L234,105a7.88,7.88,0,0,1-6.47,3.26c-5.16,0-8.53-3.74-8.59-10.48v-1l15.38.37a25.59,25.59,0,0,0,.31-2.84c0-5.32-4.05-8.42-9.26-8.42-7.16,0-11.85,5.63-11.85,13s4.26,13,11.11,13m-5.53-16.59c.37-3.95,2.37-7.53,6.11-7.53,2.69,0,4.21,1.9,4.21,5.53a4.5,4.5,0,0,1-.26,1.53l-10.06.47Z"/><path class="cls-2" d="M20.66,65.14h26l1.53-10.27H46.72a22.65,22.65,0,0,1-3.21,6.79c-1.47,1.1-4.74,1.63-6.79,1.63H35.51a26.27,26.27,0,0,1-4.42-.37V49.19h5.84a8.09,8.09,0,0,1,3,5.05h1V42.18h-1a8,8,0,0,1-3,4.9H31.08V34.71a19.72,19.72,0,0,1,3.63-.32h.47A16.51,16.51,0,0,1,42.72,36a20.31,20.31,0,0,1,2.63,6.42h1.42l-1-10.48a16.91,16.91,0,0,1-4.21.58h-21V34l2.95.63c1.21.26,1.37.37,1.37,1.11V61.93c0,.74-.16.79-1.42,1.05l-2.9.63v1.52Zm13.79-36h1.26l5.37-5.37A4.41,4.41,0,0,0,42.46,21a1.82,1.82,0,0,0-1.85-1.79,3.61,3.61,0,0,0-2.84,2.26l-3.32,7.69ZM63.36,65.77c4.84,0,7.69-2.53,9.37-6.22L72.16,59a7.11,7.11,0,0,1-6.06,3.21C61.1,62.19,58,58,58,51.71c0-4.9,2.27-10,6.69-10a4.5,4.5,0,0,1,3.74,1.58l-.68,1.11A4.14,4.14,0,0,0,67,46.45a2.93,2.93,0,1,0,5.85-.32,6.07,6.07,0,0,0-2.16-4.06,8.91,8.91,0,0,0-6.06-2.26c-7.16,0-12.16,5.74-12.16,13,0,7.43,4.11,13,10.85,13m26,0c7.43,0,12.37-5.79,12.37-13.06,0-7.69-4.95-12.9-12.37-12.9s-12.43,5.69-12.43,13c0,7.74,5,13,12.43,13m0-1.74c-4.32,0-6.48-5.79-6.48-11.32,0-7,2.58-11,6.48-11,4.32,0,6.48,5.42,6.48,11C95.8,59.82,93.22,64,89.32,64m15.8,1.1h12.32V63.88l-1.79-.48c-1.42-.37-1.63-.31-1.63-1V35.54c0-2.53.16-5.79.37-7.63H112.8l-7.58,1.31v1.11l1.9.79c1.26.52,1.47.84,1.47,2.32V62.35c0,.73-.21.68-1.68,1l-1.79.48v1.26Zm27,.63c5.21,0,8.06-2.53,9.9-6.32l-.53-.53A7.89,7.89,0,0,1,135,62.19c-5.16,0-8.53-3.74-8.58-10.48v-1l15.37.37a26.48,26.48,0,0,0,.31-2.84c0-5.32-4.05-8.42-9.27-8.42-7.16,0-11.85,5.63-11.85,13s4.26,13,11.11,13m-5.53-16.59c.37-4,2.37-7.53,6.11-7.53,2.68,0,4.21,1.9,4.21,5.53a4.4,4.4,0,0,1-.26,1.52l-10.06.48Z"/></svg>