<svg id="Layer_1" data-name="Layer 1" xmlns="http://www.w3.org/2000/svg" viewBox="0 0 136.44 182.64"><title>Artboard 1</title><path d="M17.51,182.64a7.11,7.11,0,0,1-2.77-.5,6,6,0,0,1-2-1.34,5.52,5.52,0,0,1-1.23-1.94,6.66,6.66,0,0,1,0-4.61,5.52,5.52,0,0,1,1.23-1.94,6,6,0,0,1,2-1.34,7.11,7.11,0,0,1,2.77-.5,7.13,7.13,0,0,1,2.76.5,6,6,0,0,1,2,1.34,5.52,5.52,0,0,1,1.23,1.94,6.66,6.66,0,0,1,0,4.61,5.52,5.52,0,0,1-1.23,1.94,6,6,0,0,1-2,1.34A7.13,7.13,0,0,1,17.51,182.64Zm-2.07-6.09A2.73,2.73,0,0,0,16,178.4a2,2,0,0,0,3,0,3.24,3.24,0,0,0,0-3.7,2,2,0,0,0-3,0A2.73,2.73,0,0,0,15.44,176.55Z"/><path d="M34.42,182.64a9.26,9.26,0,0,1-3-.5,6.81,6.81,0,0,1-2.5-1.46l1.45-2.54a11.15,11.15,0,0,0,2.11,1.14,5.1,5.1,0,0,0,1.86.4q.89,0,.89-.56a.64.64,0,0,0-.35-.53,5.83,5.83,0,0,0-1.35-.51,19.59,19.59,0,0,1-2.08-.7,6,6,0,0,1-1.36-.75,2.37,2.37,0,0,1-.75-.89,2.78,2.78,0,0,1-.22-1.16,3.82,3.82,0,0,1,.36-1.65,4,4,0,0,1,1-1.32,4.45,4.45,0,0,1,1.52-.86,5.92,5.92,0,0,1,1.93-.3,8.92,8.92,0,0,1,2.46.33,6.28,6.28,0,0,1,2.35,1.36l-1.6,2.54a11.52,11.52,0,0,0-1.83-1,3.66,3.66,0,0,0-1.38-.3,1.21,1.21,0,0,0-.62.14A.49.49,0,0,0,33,174a.62.62,0,0,0,.36.55,6.14,6.14,0,0,0,1.4.48,16,16,0,0,1,2.14.7,5.6,5.6,0,0,1,1.39.8,2.51,2.51,0,0,1,.75,1,3.32,3.32,0,0,1,.22,1.26,3.79,3.79,0,0,1-.33,1.63,3.43,3.43,0,0,1-1,1.23,4.4,4.4,0,0,1-1.54.78A7.17,7.17,0,0,1,34.42,182.64Z"/><path d="M53,181.77a13,13,0,0,1-1.91.64,8.14,8.14,0,0,1-2,.26,5.1,5.1,0,0,1-1.36-.18,3,3,0,0,1-1.13-.58,2.75,2.75,0,0,1-.76-1,4.05,4.05,0,0,1-.28-1.6v-5.37H44.08v-3.19h1.45V167h4.23v3.68h2.3v3.19h-2.3v3.88a1.1,1.1,0,0,0,.25.81.93.93,0,0,0,.67.23,3,3,0,0,0,.71-.1,4.84,4.84,0,0,0,.8-.28Z"/><path d="M64,182.64a7.37,7.37,0,0,1-2.74-.48,5.8,5.8,0,0,1-2-1.3A5.6,5.6,0,0,1,58,179a6.05,6.05,0,0,1-.42-2.25A7,7,0,0,1,58,174.3a5.57,5.57,0,0,1,1.23-2,5.92,5.92,0,0,1,2-1.35,7.89,7.89,0,0,1,5.54,0,6,6,0,0,1,2,1.34A5.52,5.52,0,0,1,70,174.25a6.54,6.54,0,0,1,.41,2.31q0,.33,0,.68t-.08.61H62.06a1.65,1.65,0,0,0,.69,1.35,2.41,2.41,0,0,0,1.36.41,2.83,2.83,0,0,0,1.3-.31,1.57,1.57,0,0,0,.81-.87l3.59,1a5.66,5.66,0,0,1-2.2,2.3A7,7,0,0,1,64,182.64Zm1.87-7.33a2.18,2.18,0,0,0-.62-1.34,2,2,0,0,0-2.63,0,2.17,2.17,0,0,0-.62,1.34Z"/><path d="M87.84,182.42H83.61v-6.6a1.73,1.73,0,0,0-.39-1.26,1.24,1.24,0,0,0-.9-.39,1.89,1.89,0,0,0-1.14.47,2.79,2.79,0,0,0-.89,1.2v6.58H76.05V170.69h3.81v1.74A3.94,3.94,0,0,1,81.61,171a6.5,6.5,0,0,1,2.66-.5,3.6,3.6,0,0,1,1.91.43A3,3,0,0,1,87.25,172a4,4,0,0,1,.48,1.38,9,9,0,0,1,.11,1.34Z"/><path d="M99.09,182.64a5.45,5.45,0,0,1-2.22-.45,5.09,5.09,0,0,1-1.75-1.26A5.85,5.85,0,0,1,94,179a7.1,7.1,0,0,1-.41-2.46,7.42,7.42,0,0,1,.38-2.41A6,6,0,0,1,95,172.2a4.87,4.87,0,0,1,1.62-1.27,4.67,4.67,0,0,1,2.07-.46,4.31,4.31,0,0,1,2.08.51,3.57,3.57,0,0,1,1.46,1.45v-6.29h4.24v11.59a1.44,1.44,0,0,0,.18.84.85.85,0,0,0,.62.28v3.57a9.34,9.34,0,0,1-1.78.22q-2.16,0-2.5-1.63l-.09-.42a3.66,3.66,0,0,1-1.63,1.56A5,5,0,0,1,99.09,182.64Zm1.16-3.57a2.43,2.43,0,0,0,2-1.2v-2.1a3,3,0,0,0-.91-1.26,2,2,0,0,0-1.27-.48,1.85,1.85,0,0,0-.86.2,2,2,0,0,0-.67.56,2.91,2.91,0,0,0-.45.82,3,3,0,0,0-.17,1,2.48,2.48,0,0,0,.64,1.78A2.21,2.21,0,0,0,100.25,179.07Z"/><path d="M118.93,182.64a7.11,7.11,0,0,1-2.77-.5,6,6,0,0,1-2-1.34,5.52,5.52,0,0,1-1.23-1.94,6.66,6.66,0,0,1,0-4.61,5.52,5.52,0,0,1,1.23-1.94,6,6,0,0,1,2-1.34,7.89,7.89,0,0,1,5.54,0,6,6,0,0,1,2,1.34,5.52,5.52,0,0,1,1.23,1.94,6.66,6.66,0,0,1,0,4.61,5.52,5.52,0,0,1-1.23,1.94,6,6,0,0,1-2,1.34A7.13,7.13,0,0,1,118.93,182.64Zm-2.07-6.09a2.73,2.73,0,0,0,.58,1.85,2,2,0,0,0,3,0,3.24,3.24,0,0,0,0-3.7,2,2,0,0,0-3,0A2.73,2.73,0,0,0,116.86,176.55Z"/><path d="M136.44,70.87a67.81,67.81,0,0,0-10-35.46,45.18,45.18,0,0,0-7.81-14.09c-4.32-5.19-10.12-8.85-16.22-11.59a130.12,130.12,0,0,0-20-7.15C68.95-1,54.05-1.63,41.62,5.7A51.48,51.48,0,0,0,32.13,13,68.14,68.14,0,0,0,29,126.62c7.7,8.58,18.9,13,30.53,13.46a64.88,64.88,0,0,0,15.07-1.29A68.31,68.31,0,0,0,136.44,70.87Zm-30.08,46.74c-4.64,4.14-10.42,6.74-16.2,8.88a101.72,101.72,0,0,1-20.38,5.61c-11.37,1.68-24.32,0-33.08-8.08-4.6-4.23-7.4-9.88-9.9-15.52-2-4.6-4-9.23-5.85-13.92a52.94,52.94,0,1,0-4.71-13.9A71.41,71.41,0,0,1,14,69.13c-.55-5.3-.67-11,.85-16.14l1-3.48C21.65,38.27,28.58,26.77,37.77,18A36.88,36.88,0,0,1,53,8.82a44.61,44.61,0,0,1,18.34-1A94.32,94.32,0,0,1,90.1,12.76C96,14.86,101.85,17.18,107,20.7c9.3,6.34,13.39,17.1,15.09,27.81A104.68,104.68,0,0,1,123.16,65a133.65,133.65,0,0,1-1.31,20.66C120,97.56,115.53,109.43,106.36,117.61ZM16,70.87A52.17,52.17,0,1,1,68.22,123,52.23,52.23,0,0,1,16,70.87Zm-15.3,0A67.43,67.43,0,0,1,29.55,15.62C23.63,22,18.77,29.52,14.44,36.74q-2.8,4.67-5.28,9.52l0,0a4.08,4.08,0,0,0-.35.84A55.3,55.3,0,0,0,6.33,59.28a70,70,0,0,0,2.47,22.3A158.7,158.7,0,0,0,16.4,103c2.77,6.58,5.36,13.48,9.33,19.45.42.62.85,1.22,1.3,1.81A67.39,67.39,0,0,1,.74,70.87Zm114.33,48.5C129.68,103,131.72,77.25,130.32,56a82.73,82.73,0,0,0-2.82-17.32,67.34,67.34,0,0,1-12.44,80.7Z"/></svg>